<svg xmlns="http://www.w3.org/2000/svg" viewBox="0 0 360 140" class="w-32 lg:w-180px"><g fill="currentColor"><path transform="matrix(0 1 1 0 259.86 78.32)" d="M0 0h-.12l-.5-4.37.27-.12c.12.17.33.34.33.52C.01-2.65 0-1.32 0 0m7.54-4.98h-.46v-11.69h.46zM-9-53.62c.82.68.72 21.13 0 21.66zm5.83-110.78.37.4v22.24s-.3.36-.37.41zm-5.69 32.63h.42v27.1h-.42zm3.15 77.7.47-.02v22h-.47zm-8.78 37.74c-.87-.78-.7-37.22 0-37.66zm16.05-37.8c.3.45.37 33.85 0 34.74-.12-.27-.23-.42-.24-.57-.28-2.45-.05-33.78.24-34.17m-13.32-49.74.3.2v40.16l-.36.02c-.04-.31-.12-.63-.12-.94v-38.32c0-.23-.01-.47.02-.7.02-.14.1-.28.16-.42m5.27 1.83c0 .35.22.76.22 1.1 0 13.3-.22 26.41-.22 39.7-.72-.6-.72-40.2 0-40.8M-2.97 1.8v-56.7h.66c0 18.79 0 37.57-.03 56.36 0 .1-.34.19-.63.34m.02-123.88v44.02c-.78.11-.55-.46-.55-.79l-.01-42.24c0-.15-.05-.33.01-.45.1-.16.27-.27.55-.54m-27.55-72.37h13.08v-.92c-2.4-.61-4.77-.55-7.15-.46-1.48.06-2.97.05-4.45.1-.57 0-.64-.26-.46-.82h8.4l-.26-1.86 3.96-.33c-.13-3.07-.28-6.07-.37-9.08-.04-1.52-.25-2.83-2.36-2.96.48-.3.71-.5 1-.6.62-.26.78-.7.7-1.33-.07-.74.03-1.5-.08-2.22-.14-.88.08-1.35 1.02-1.43.2-.02.5-.28.54-.48.3-1.49.08-1.85-1.37-2.19-.81-.2-1.66-.28-2.5-.36-.53-.05-1.08-.01-1.64-.01.11-.64.45-.78 1-.77 1.69.03 3.39 0 5.08 0-.12-.84-.4-1.36-1.31-1.28-.37.03-.75-.13-1.13-.2-1.4-.3-1.4-.3-1.31-1.71 0-.05.04-.1.08-.18l5-.69-.09-.86h-14.2l.03-.78h12.86c.05-.34.1-.61.15-1.02l-4.56-.42c1.4-.21 2.86-.41 4.32-.65 1.08-.18 1.2-.38 1.08-1.6h-11.72c-.5 0-.88-.05-.65-.8h14.18c.82-1.48-.6-1.48-1.3-2.1l3.62-.63v-9.94h.87l.56 15.3h.98v-26.97l.29-.09c.1.22.28.44.28.66.14 5.84.34 11.67.37 17.5.04 5.27.1 10.54-1.08 15.74-1.04 4.61-.84 9.31-.71 14 .1 3.66.15 7.32.22 10.98v1.77c.68.06 1.34.2 1.99.17.84-.04 1.02.4 1.09 1.1.37 3.6.76 7.22 1.16 10.83.03.2.2.39.32.58.16.24.45.46.47.7.1 1.77.16 3.54.23 5.3 0 .17-.03.34-.04.55l-1.38.11c0 3.24.04 6.42-.01 9.59-.04 2.04-.2 4.09-.32 6.13-.03.44-.08.92-.79.57v-6.4h-1.06v10.95l-1.27.2v13.04h-1.7l-.7 9.47c-.76.05-1.36.1-2.12.14v-1.72c-.05-8.17-.13-16.33-.13-24.5 0-9.62.08-19.25.13-28.87v-1l-10.6-.54v-.92l3 .18.22-2.01c-.34-.07-.61-.14-.89-.16-1.14-.07-2.3-.14-3.44-.18l-6.6-.24c-.17 0-.34-.2-.51-.3.18-.08.36-.23.55-.23 1.64-.02 3.27 0 4.91 0h3.34l.27-1.8c-2.14 0-4.16-.03-6.17.02-.7.01-1.01-.2-.92-1.07M54.88 29.52l.23-.05c.08.17.2.34.25.52a32 32 0 0 1 1.35 13.15 39.33 39.33 0 0 1-4.47 14.28 57.44 57.44 0 0 1-9.58 13.05 72.56 72.56 0 0 1-9.7 8.4 76.92 76.92 0 0 1-19.29 10.3A58.2 58.2 0 0 1-1.35 92.5c-4.06.34-8.1.55-12.16.28a61.56 61.56 0 0 1-14.96-2.96 72.85 72.85 0 0 1-25.95-15.3 112.33 112.33 0 0 1-6.39-6.39 40.36 40.36 0 0 1-4.36-5.3c-3.9-5.99-6.7-12.45-7.64-19.6-.43-3.21-.33-6.42.7-9.54.19-.57.43-.8 1.05-.38v7.35c.74.1.6-.39.6-.74V26.93h.9v11.9c1.19.1 1.53-.2 1.55-1.26l.14-7.09c.69-.22.78.09.78.6v7.75c0 1.18.02 1.2 1.29 1.16.88-7.9.25-15.83.44-23.77h1v15.41c.01 1.69-.02 3.37.03 5.05l.38.01c.05-.35.14-.7.14-1.04.05-2.13 0-4.25.12-6.37.1-1.7.43-3.38.66-5.07.09-.62.39-.9 1.03-.62l.38 1.89.3-.03.13-4.71c.05-1.44.25-2.84.97-4.13.2-.36.42-.54.85-.41.4.12.6.31.55.76-.04.48 0 .97 0 1.46v2.84c0 .14.14.28.21.42.1-.15.22-.28.26-.44.05-.16.01-.35.01-.53V8.99c1.03-.19 1.22-.11 1.3.81.17 1.83.28 3.67.37 5.5.03.72.29 1.1 1.2 1.08V5.16c.68-.1.93.08.99.66.19 2.03.5 4.06.63 6.1.06.85.4 1.11 1.26 1.04l.79-5.2c.65-.1.94.15 1.02.7.05.32.17.64.2.97.03.73.38.85 1.01.6l.43-8.68c.6-.17.82-.03.87.5.2 1.74.46 3.49.65 5.24.06.58.3.69.86.47V1.14c.01-.32-.15-.71.43-.82.54-.1.67.22.82.58.62 1.47.68 3.02.64 4.58-.04 1.56-.1 3.12-.12 4.68 0 .15.22.31.33.47.12-.16.33-.31.34-.48.1-1.73.18-3.46.26-5.2l.24-5.16h.77l.84 5.14.31-.02.7-12.62.27.01.67 14.07h.76V-6l.21-.03c.08.35.21.7.23 1.06.07 1.81.16 3.63.16 5.44 0 1.89-.03 3.77.56 5.62h2.2V2.38c1.41-.14 1.41-.14 1.64 1l.4 2.1.25.07c.13-.27.35-.52.38-.8.16-1.26.26-2.52.39-3.84l.93.1c.17 1.18.32 2.31.51 3.44.04.2.24.39.36.58.1-.19.26-.36.3-.55.18-1.24.32-2.48.5-3.72.04-.2.22-.38.33-.57.24.14.58.23.69.44.22.42.28.92.49 1.35.1.21.42.49.58.45.2-.04.48-.36.5-.58.13-2.09.25-4.18.31-6.27.05-1.43.01-2.85.01-4.26.7-.26.66.21.68.59l.33 5.43.24 3.56c.3.02.48.04.65.03.68-.06 1.07.18 1.07.9 0 .16.08.3.12.45.22.96.52 1.19 1.68 1.22.05-.7.05-1.41.18-2.1.04-.23.4-.42.66-.55.05-.02.37.28.4.46.18 1.01.3 2.04.46 3.1l1.84-.46c1.25-18.72.44-37.44.54-56.15.72-.06.66.4.68.76.07 1.3.15 2.6.16 3.9.04 4.6.08 9.2.06 13.81 0 4.2-.1 8.4-.14 12.59-.03 2.97-.11 5.94-.05 8.9.1 5.48.28 10.95.45 16.42.03 1.22.06 1.22 1.2 1.55.63.17 1.08.46 1.15 1.2.07.63.28 1.24.43 1.86.3 1.22.3 1.22 1.57 1.24l.26-5.67 1.04.24v4.48h.4v-60.43l.23-.03c.05.15.14.29.15.43.59 6.17.75 12.35.55 18.54-.2 5.93-.36 11.86-.46 17.79-.05 3.27-.08 6.55.1 9.82.24 4.22.7 8.44 1.07 12.66.01.16.18.3.28.46.1-.15.29-.28.31-.44.12-.73.21-1.46.29-2.2.04-.42.16-.68.7-.47v4.07c.01.19.15.38.22.56.1-.17.26-.35.28-.53.13-1.3.24-2.6.33-3.9.04-.59.26-.79.84-.5l.34 3.53h.18V-3.48h1.03v.87c0 3.3.02 6.6 0 9.9-.01.68.16.99.93.78l.18-3.54 1.36.17v6.76c.78.3 1.06-.08 1.16-.67.57-.17.8.1.87.58.07.48.11.96.21 1.43.06.26.2.5.3.75l.17-.06V2.2l.17-.03.97 7.63c.24-.21.45-.3.49-.45.1-.34.12-.7.17-1.05l.8-5.98.22-.11c.15.17.4.34.44.53.13.85.2 1.7.29 2.55h.89v-7.87h.78c.36 2.45.73 4.87 1.06 7.29.08.57.23.83.88.83.69 0 .73-.35.78-.84.28-2.92.6-5.84.83-8.77.06-.75.37-.92 1.02-.83l.25 8.7c1.32-.1 1.36-.13 1.42-1.25l.79-13.93c0-.22.09-.45.13-.67l.24.01c1.11 3.96.9 8.07 1.2 12.16h1.7c.09-.58.16-1.15.24-1.79l1.08.16c.12.77.26 1.47.32 2.18.05.51.24.67.76.7.78.06 1.15-.16 1.09-.98-.02-.22.09-.45.12-.68.17-1.06.31-1.15 1.42-.82l.52 3.71c.79.09 1.37.12 1.93-.6A5.44 5.44 0 0 1 25.13.55c.97-.45 1.47-.14 1.7.91.25 1.2.42 2.41.64 3.62.05.27.16.52.25.79l.26-.07.03-.74c.08-1.35.14-2.7.26-4.05.02-.22.3-.42.46-.63.2.18.46.33.55.55.34.8.6 1.62.94 2.42.09.2.37.31.56.47.15-.23.4-.43.44-.67.1-.63.1-1.27.18-1.9.03-.17.24-.41.38-.42.15 0 .4.18.46.34.13.4.17.84.26 1.27l.63 3.1.33.02c.81-.88.31-2.18.8-3.17.63-.19.83.02.86.7.05 1.35.21 2.7.35 4.05.03.37 0 .9.22 1.1.49.4 1.12.64 1.8 1 .06-1.18.11-2.27.2-3.36.02-.2.23-.58.31-.57.27.03.6.14.77.34.15.19.13.53.16.8l.38 4.32c.07.78.12 1.57 1.25 1.25.1.33.16.58.22.83.47 1.85.92 3.71 1.4 5.56.07.25.32.44.48.66l.55-.68.07-.08c.64-.13.95.24 1.01.82.07.63.03 1.28.09 1.91.02.2.22.39.34.58.1-.19.26-.37.27-.56.05-.74.04-1.48.07-2.23.02-.86.08-.9 1-.72l.27 3.19 1.04 12.13c.06.68.41.71 1.04.58v-4.43h.95c.13 1.21.24 2.38.39 3.54.01.14.21.26.33.38.1-.13.25-.25.29-.4.05-.2 0-.41 0-.62v-2.97h1.4l1.08 9.08c.46-.02.85-.08 1.22-.05.66.06.83-.23.82-.85-.03-2.46-.01-4.91-.01-7.37zM-.26-59.04v-198.19a74.46 74.46 0 0 0-13.23-.01v22.2l-19.02.33c-.05.75-.15 1.38-.13 2 .12 3.81.28 7.62.42 11.43.02.57.27.81.85.82 2.12.02 4.25.05 6.37.11 1.06.03 1.05.07 1.04 1.15-.02 3.25-.02 6.5-.06 9.75 0 .53.11.78.7.82 1.3.1 2.59.3 4 .46v7.35h-14.3c-.66 0-1.32.14-1.98.13-.81-.03-1.08.36-1.1 1.1l-.29 11.11c-.02.85 0 1.69 0 2.64h21.59v126.56c-1.53.08-3.04.13-4.53.26-.86.08-1.73.23-2.55.48-.97.3-1.56.97-1.81 2.06a31 31 0 0 0-.18 12.12c.75 4.52 1.66 9 2.43 13.52.33 1.9.63 3.84.17 5.79-.64 2.7-2.3 4.7-4.45 6.32-2.72 2.06-5.8 3.42-8.91 4.75-6.81 2.92-13.36 6.32-19.3 10.77-7.52 5.63-13.44 12.59-16.98 21.37-4.52 11.21-4.34 22.52-.25 33.8 3.56 9.82 9.56 17.99 17.4 24.79a77.84 77.84 0 0 0 27.58 15.6c7.34 2.33 14.9 2.9 22.54 2.28a73.51 73.51 0 0 0 42.78-17.87c8.92-7.64 15.42-16.96 18.8-28.3a47.27 47.27 0 0 0 2.08-14.84 39.28 39.28 0 0 0-2.32-11.55C53.04 10.13 45.98.46 35.15-6.16c-3.5-2.14-7.32-3.74-11.01-5.55-4.58-2.24-9.1-4.56-13.07-7.82-.3-.24-.57-.52-.88-.74-3.64-2.69-4.53-6.42-4.13-10.68.4-4.3 1.57-8.44 2.46-12.64.59-2.75 1.16-5.51 1.03-8.35-.2-4.2-2.45-6.56-6.63-6.92-1.02-.09-2.04-.12-3.18-.18"></path> <path transform="matrix(0 1 1 0 296.57 121.79)" d="M0 0c0 .66.05 1.33 0 2a31.47 31.47 0 0 1-3.32 11.2 54.62 54.62 0 0 1-8.33 12.17c-3.79 4.27-7.99 8.05-13.09 10.74-6.86 3.61-14.25 5.12-21.93 5.37a88.47 88.47 0 0 1-18.91-1.36c-6.16-1.13-11.95-3.21-17.15-6.76-4.93-3.36-8.84-7.73-12.14-12.65-4.16-6.2-7.28-12.8-7.86-20.38-.26-3.39.18-6.68 1.85-9.7 2-3.65 5.19-5.84 9.03-7.14 1.85-.63 3.73-1.36 5.73-1.05 1.7.26 3.4.63 5.05 1.15 3.3 1.04 6.53 2.27 9.82 3.32 2.2.7 4.49.99 6.8.67a13.1 13.1 0 0 0 6.7-3.1 8.52 8.52 0 0 1 6.26-2.22c1.81.14 3.47.8 5.08 1.59 2.05 1.02 4.07 2.1 6.15 3.07 3.14 1.44 6.3 1.66 9.51.09 1.5-.74 3.1-1.31 4.67-1.9 3.86-1.42 7.78-2.56 11.97-2.4 4.21.16 7.7 1.8 10.27 5.12C-1.08-8.6.07-4.47 0 0m-49.5 43.53c10.22-.17 18.65-2.1 26.46-6.4A39.55 39.55 0 0 0-9.09 24.5c1.4-2.09 3.1-3.98 4.47-6.09A38.6 38.6 0 0 0 1.53 1.82c.49-4.15 0-8.18-1.93-11.96a18.48 18.48 0 0 0-6.53-7.01 16.03 16.03 0 0 0-5.8-2.6c-2.79-.52-5.52-.2-8.14.72-3.45 1.2-6.87 2.5-10.24 3.9-3.14 1.29-6.18.9-9.1-.44a33.91 33.91 0 0 1-5.84-3.53c-3.3-2.43-8.03-2.14-11.14-.11a97.73 97.73 0 0 1-6.44 3.9c-1.37.76-2.96.71-4.5.6-3.39-.28-6.5-1.56-9.66-2.7a72.5 72.5 0 0 0-6.67-2.14c-3.14-.8-6.2-.32-9.16 1-6.28 2.83-9.92 7.7-10.83 14.46-.78 5.8.38 11.4 2.83 16.72 2.01 4.38 4.78 8.27 7.84 11.95 2.06 2.49 4.28 4.86 6.54 7.17 3.4 3.48 7.55 5.81 12.1 7.48a63 63 0 0 0 15.39 3.37c3.85.4 7.72.7 10.25.93"></path></g></svg>