<svg xmlns="http://www.w3.org/2000/svg" width="17" height="22" viewBox="0 0 17 22">
    <g fill="none" fill-rule="evenodd">
        <path fill="#FFDC00" fill-rule="nonzero" d="M8.5 1.108l7.628 6.47V9.29H.872V7.578z"/>
        <path fill="#5717D7" fill-rule="nonzero" d="M8.48 0a.408.408 0 0 0-.246.1L.17 6.944a.512.512 0 0 0-.17.39v2.444c0 .27.195.49.436.49h1.308v7.822H.395c-.225.023-.396.235-.395.488v2.445c0 .27.195.489.436.489h16.128c.24 0 .436-.22.436-.49v-2.444c0-.27-.195-.488-.436-.488h-1.308V9.534c.002-.132-.873-.13-.871 0v8.556h-1.308v-7.823h3.487c.24 0 .436-.219.436-.489V7.334a.512.512 0 0 0-.17-.39L8.766.1A.404.404 0 0 0 8.48 0zm.02 1.108l7.628 6.47V9.29H.872V7.578L8.5 1.108zm-.436 1.826v.306c-.608.173-1.09.703-1.09 1.405 0 .498.263.914.559 1.108.296.193.593.255.844.336.287.091.533.162.647.237.115.074.13.06.13.275 0 .18-.248.489-.654.489-.34 0-.633-.269-.674-.405a.459.459 0 0 0-.329-.326.411.411 0 0 0-.415.157.538.538 0 0 0-.087.482c.16.535.577.887 1.07 1.016v.298c-.003.176.08.34.215.429a.396.396 0 0 0 .44 0 .504.504 0 0 0 .216-.43v-.305c.608-.174 1.09-.704 1.09-1.405 0-.498-.263-.922-.559-1.116-.296-.193-.593-.255-.844-.336-.287-.091-.533-.162-.647-.237-.115-.074-.13-.053-.13-.267 0-.18.249-.489.654-.489.34 0 .633.26.674.397.05.167.175.29.329.326a.411.411 0 0 0 .415-.157.538.538 0 0 0 .087-.482c-.16-.535-.577-.874-1.07-1v-.306a.519.519 0 0 0-.14-.371.407.407 0 0 0-.343-.126c-.224.028-.393.244-.388.497zm-5.449 7.333h1.308v7.823H2.615v-7.823zm2.18 0h2.18v7.823h-2.18v-7.823zm3.051 0h1.308v7.823H7.846v-7.823zm2.18 0h2.18v7.823h-2.18v-7.823zm-9.154 8.8h15.256v1.467H.872v-1.467z"/>
        <path fill="#F9F9F9" d="M9.563 19.8h4.25V22h-4.25z"/>
        <ellipse cx="11.688" cy="21.01" fill="#5717D7" rx="1" ry="1"/>
    </g>
</svg>
