<svg xmlns="http://www.w3.org/2000/svg" width="26" height="22" viewBox="0 0 26 22">
    <g fill="none" fill-rule="evenodd" transform="translate(0 1)">
        <path fill="#5E23DC" fill-rule="nonzero" stroke="#F6F5FF" stroke-width=".5" d="M25.078 19.105h-9.456c3.073-1.793 5.122-5.07 5.122-8.861A10.209 10.209 0 0 0 10.5 0 10.209 10.209 0 0 0 .256 10.244 10.209 10.209 0 0 0 10.5 20.488h14.578a.646.646 0 0 0 .666-.666c0-.359-.359-.717-.666-.717zM1.639 10.244A8.831 8.831 0 0 1 10.5 1.383a8.831 8.831 0 0 1 8.861 8.86 8.831 8.831 0 0 1-8.861 8.862 8.831 8.831 0 0 1-8.861-8.861z"/>
        <circle cx="10.5" cy="10.244" r="1" fill="#5E23DC"/>
        <path fill="#5E23DC" fill-rule="nonzero" stroke="#F6F5FF" stroke-width=".5" d="M10.5 8.195A2.733 2.733 0 0 1 7.785 5.48 2.733 2.733 0 0 1 10.5 2.766a2.733 2.733 0 0 1 2.715 2.714A2.733 2.733 0 0 1 10.5 8.195z"/>
        <path fill="#FFDC00" fill-rule="nonzero" d="M10.5 4.098c-.768 0-1.383.614-1.383 1.382 0 .769.615 1.383 1.383 1.383s1.383-.614 1.383-1.383c0-.768-.615-1.382-1.383-1.382z"/>
        <path fill="#5E23DC" fill-rule="nonzero" stroke="#F6F5FF" stroke-width=".5" d="M10.5 17.773a2.733 2.733 0 0 1-2.715-2.714 2.733 2.733 0 0 1 2.715-2.715 2.733 2.733 0 0 1 2.715 2.715 2.733 2.733 0 0 1-2.715 2.714z"/>
        <path fill="#FFDC00" fill-rule="nonzero" d="M10.5 13.676c-.768 0-1.383.614-1.383 1.383 0 .768.615 1.331 1.383 1.331s1.383-.614 1.383-1.383c0-.768-.615-1.331-1.383-1.331z"/>
        <path fill="#5E23DC" fill-rule="nonzero" stroke="#F6F5FF" stroke-width=".5" d="M15.263 12.959a2.733 2.733 0 0 1-2.714-2.715 2.733 2.733 0 0 1 2.714-2.715 2.733 2.733 0 0 1 2.715 2.715 2.7 2.7 0 0 1-2.715 2.715z"/>
        <path fill="#F8E71C" fill-rule="nonzero" d="M15.263 8.861c-.768 0-1.383.615-1.383 1.383s.615 1.383 1.383 1.383c.769 0 1.383-.615 1.383-1.383s-.614-1.383-1.383-1.383z"/>
        <path fill="#5E23DC" fill-rule="nonzero" stroke="#F6F5FF" stroke-width=".5" d="M5.737 12.959a2.733 2.733 0 0 1-2.715-2.715 2.733 2.733 0 0 1 2.715-2.715 2.733 2.733 0 0 1 2.714 2.715 2.733 2.733 0 0 1-2.714 2.715z"/>
        <path fill="#FFDC00" fill-rule="nonzero" d="M5.737 8.861c-.769 0-1.383.615-1.383 1.383s.614 1.383 1.383 1.383c.768 0 1.383-.615 1.383-1.383S6.454 8.86 5.737 8.86z"/>
    </g>
</svg>
