<svg xmlns="http://www.w3.org/2000/svg" width="32" height="29" viewBox="0 0 32 29">
    <g fill="none" fill-rule="evenodd">
        <path fill="#F6F5FF" d="M3.653 21.667c4.012 4.44 10.845 7.163 15.216 7.207 2.47.024 7.932-.93 6.666-4.42-.68-1.872-1.815-3.297-.965-5.328.606-1.447 1.913-1.46 4.728-1.93 4.324-.72 3.37-9.389-5.3-14.307-6.975-3.957-12.64-2.955-18.81 1.823C-.215 8.9-1.48 15.987 3.654 21.667"/>
        <g fill-rule="nonzero" stroke-width=".5">
            <path fill="#5E23DC" stroke="#F6F5FF" d="M25.045 21.65h-7.472c-.357 0-.715-.25-.715-.608 0-.394.393-.608.715-.608h3.253c.644 0 1.216-.25 1.645-.644a2.17 2.17 0 0 0 .715-1.608v-1.716c.822-.644 2.038-1.824 2.896-3.36.715-1.288 1.287-2.825 1.287-4.47.071-2.788-2.217-5.076-5.005-5.076-2.789 0-5.077 2.288-5.077 5.077 0 1.644.572 3.181 1.287 4.468.894 1.609 2.18 2.825 3.039 3.432v1.609a.66.66 0 0 1-.179.429c-.143.107-.322.215-.536.215H17.609c-1.252 0-2.396.965-2.396 2.252 0 1.251 1.073 2.216 2.289 2.252 2.466.072 5.076 0 7.543 0 .393 0 .715.322.715.715a.717.717 0 0 1-.715.715H11.817a13.37 13.37 0 0 0 1.645-2.18c.715-1.288 1.287-2.825 1.287-4.47a5.073 5.073 0 0 0-5.077-5.076c-2.824.036-5.112 2.324-5.112 5.112 0 1.645.572 3.182 1.287 4.469 1.323 2.324 3.432 3.861 3.79 3.861h15.408a2.395 2.395 0 0 0 2.395-2.395c0-1.287-1.072-2.395-2.395-2.395zm-5.041-9.331c-.608-1.073-1.072-2.324-1.072-3.647a3.433 3.433 0 0 1 6.864 0c0 1.323-.465 2.61-1.073 3.647-1.037 1.787-2.216 3.003-2.36 3.003-.142 0-1.358-1.216-2.359-3.003zM9.637 24.795c-.143 0-1.323-1.215-2.36-3.003-.608-1.072-1.072-2.323-1.072-3.646a3.433 3.433 0 0 1 6.864 0c0 1.323-.465 2.61-1.073 3.647-1.001 1.787-2.216 3.003-2.36 3.003z"/>
            <path fill="#FFDC00" stroke="#FFDE00" d="M9.637 24.795c-.143 0-1.323-1.215-2.36-3.003-.608-1.072-1.072-2.323-1.072-3.646a3.433 3.433 0 0 1 6.864 0c0 1.323-.465 2.61-1.073 3.647-1.001 1.787-2.216 3.003-2.36 3.003z"/>
            <path fill="#FFDC00" stroke="#FFDC00" d="M20.004 12.319c-.608-1.073-1.073-2.324-1.073-3.647a3.433 3.433 0 0 1 6.864 0c0 1.323-.464 2.61-1.072 3.647-1.037 1.787-2.216 3.003-2.36 3.003-.142 0-1.358-1.216-2.359-3.003z"/>
            <path fill="#5E23DC" stroke="#FFDC00" d="M22.364 10.996a2.38 2.38 0 0 0 2.359-2.36 2.38 2.38 0 0 0-2.36-2.359 2.38 2.38 0 0 0-2.359 2.36c0 .643.25 1.25.68 1.68a2.38 2.38 0 0 0 1.68.679zm0-3.039c.393 0 .715.322.715.715a.717.717 0 0 1-.715.715.717.717 0 0 1-.715-.715c0-.429.321-.715.715-.715zM9.637 15.75a2.38 2.38 0 0 0-2.36 2.36 2.38 2.38 0 0 0 2.36 2.36 2.38 2.38 0 0 0 2.359-2.36 2.357 2.357 0 0 0-2.36-2.36zm0 3.075a.717.717 0 0 1-.715-.715c0-.393.321-.715.715-.715.393 0 .715.322.715.715a.717.717 0 0 1-.715.715z"/>
        </g>
    </g>
</svg>
