<svg xmlns="http://www.w3.org/2000/svg" width="22" height="22" viewBox="0 0 22 22">
    <g fill="none" fill-rule="evenodd" stroke="#5E23DC">
        <path fill="#FFD731" fill-rule="nonzero" stroke-width=".6" d="M16.294 8.91l1.206-.076h.006a2.55 2.55 0 0 0 1.9-1.11l.957-1.405a5.365 5.365 0 0 0 .86-3.937.983.983 0 0 0-.918-.813A5.363 5.363 0 0 0 16.5 2.895l-1.28 1.118a2.545 2.545 0 0 0-.873 2.023l.069 1.209a2.005 2.005 0 0 1-.559 1.503l-9.99 10.264c-.21.219-.32.522-.306.858.015.377.19.75.461.99a1.425 1.425 0 0 0 1.04.34c.335-.027.623-.172.815-.406l8.992-11.15c.35-.431.87-.699 1.425-.734z"/>
        <path fill="#5E23DC" stroke-width=".1" d="M21.03 18.726l-6.7-6.102a.309.309 0 1 0-.416.456l6.698 6.101a.84.84 0 0 1 .255.611c.005.294-.11.588-.309.786a1.097 1.097 0 0 1-.786.309.84.84 0 0 1-.61-.253l-5.97-6.555a.309.309 0 1 0-.456.416l5.972 6.556c.262.284.636.445 1.052.453h.032c.448 0 .895-.181 1.203-.489.315-.315.498-.777.489-1.235a1.453 1.453 0 0 0-.455-1.054zM4.726 9.15a2.86 2.86 0 0 0 1.87.757l1.219.004c.473.001.927.202 1.246.55l.534.586a.308.308 0 0 0 .436.02.309.309 0 0 0 .02-.436l-.534-.587a2.324 2.324 0 0 0-1.7-.75l-1.21-.005a2.244 2.244 0 0 1-1.449-.58L1.644 4.533a.106.106 0 0 1 .082-.175c.016 0 .048.004.075.03L5 7.588a.812.812 0 0 0 1.147 0l.376-.376.667-.668.377-.376a.812.812 0 0 0 0-1.147l-3.2-3.199a.107.107 0 0 1 .145-.157L8.689 5.18c.361.398.567.912.58 1.449l.004 1.21c.002.644.276 1.263.751 1.7l.573.521a.309.309 0 1 0 .416-.456l-.572-.52a1.705 1.705 0 0 1-.55-1.248l-.004-1.212a2.864 2.864 0 0 0-.784-1.904L4.909 1.192a.725.725 0 0 0-.978 1.066L7.13 5.457a.194.194 0 0 1 0 .274l-.158.157-3.565-3.565a.308.308 0 1 0-.437.436l3.566 3.566-.231.23-3.566-3.564a.309.309 0 0 0-.436.436l3.565 3.565-.158.158a.194.194 0 0 1-.273 0l-3.2-3.199a.72.72 0 0 0-.511-.212.72.72 0 0 0-.512.212.72.72 0 0 0-.043.978L4.7 9.123c.008.01.017.02.027.028z"/>
    </g>
</svg>
