<svg xmlns="http://www.w3.org/2000/svg" width="18" height="23" viewBox="0 0 18 23">
    <g fill="none" fill-rule="evenodd">
        <path fill="#5E23DC" d="M12.237 10.212a.392.392 0 0 0 .496-.253.685.685 0 0 1 .873-.443c.768.267 1.606-.157 1.866-.95a.407.407 0 0 0-.244-.512.389.389 0 0 0-.497.253.684.684 0 0 1-.873.444c-.767-.267-1.605.157-1.866.949-.07.21.04.44.245.512zM13.163 7.4a.392.392 0 0 0 .496-.253.699.699 0 0 1 .347-.408.665.665 0 0 1 .526-.035c.768.268 1.605-.157 1.866-.95a.407.407 0 0 0-.245-.512.388.388 0 0 0-.496.253.684.684 0 0 1-.873.444 1.42 1.42 0 0 0-1.124.076c-.352.18-.615.49-.742.873-.07.211.04.44.245.512zM14.088 4.589a.392.392 0 0 0 .497-.253c.09-.273.38-.42.644-.328.327.114.677.09.987-.066.309-.157.54-.43.651-.766a.407.407 0 0 0-.244-.512.388.388 0 0 0-.497.252.517.517 0 0 1-.257.302.49.49 0 0 1-.388.025c-.674-.234-1.41.139-1.638.833-.07.212.04.44.245.513z"/>
        <path fill="#5E23DC" fill-rule="nonzero" d="M16.922 10.182a.5.5 0 0 0-.223-.086c.778-2.605 1.204-5.158 1.265-7.589.02-.765-.343-1.786-1.073-2.258-.351-.227-.925-.414-1.671-.019-1.169.622-2.005 2.451-2.676 3.922-.04.084-.077.167-.115.25a2.325 2.325 0 0 0-1.24-1.62 1.896 1.896 0 0 0-1.45-1.488 1.28 1.28 0 0 0-.03-.124C9.559.644 9.11.249 8.589.185a1.297 1.297 0 0 0-.83.177 1.385 1.385 0 0 0-.692-.186c-.68 0-1.253.489-1.402 1.144-.744.209-1.289.913-1.295 1.731-.849.226-1.467 1.017-1.467 1.958 0 .25.045.496.133.729-.22.28-.343.631-.343 1 0 .22.045.434.128.63-.391-.439-.941-.798-1.559-.775a.399.399 0 0 0-.38.416c.007.218.181.39.392.39h.038c.366 0 .707.25.955.54-.62.185-1.369.485-1.718 1.164-.21.41-.234.912-.094 1.487a.717.717 0 0 0-.098.397l.666 9.76c.06 1.224 1.039 2.182 2.227 2.182h10.984c1.188 0 2.166-.958 2.227-2.175l.682-10.099v-.007a.529.529 0 0 0-.22-.466zM12.75 5.555c.155-.298.324-.668.503-1.06.588-1.288 1.394-3.051 2.326-3.548.34-.18.634-.184.897-.015.453.294.72 1.035.707 1.554-.06 2.386-.482 4.896-1.256 7.463-.026.084-.082.254-.162.488l-.667.305a.36.36 0 0 0-.042.023 1.21 1.21 0 0 1-.625.18 1.209 1.209 0 0 1-.624-.18l-.279-.172a1.974 1.974 0 0 0-1.04-.298h-.013a1.97 1.97 0 0 0-1.054.298l-.278.172a1.203 1.203 0 0 1-.501.163l.031-.104a29.996 29.996 0 0 1 .799-2.396c.048-.128.096-.257.146-.384a27.25 27.25 0 0 1 1.132-2.489zm-4.989.957l.133-.177v-.001a.89.89 0 0 0 .155-.732l1.634-.368a.944.944 0 0 0 .042.15.896.896 0 0 0 .385.446l.186.103c.053.028.106.058.16.088l.076.043c.046.027.091.057.137.086a2.388 2.388 0 0 1 .24.177 1.743 1.743 0 0 1 .38.46c-.166.378-.322.763-.473 1.152-.024.06-.049.119-.072.179-.429.112-.843.322-1.355.697-.645.473-1.125.598-1.916.48l-.238-1.121c-.16-.758.189-1.218.526-1.662zm1.94-2.45a.157.157 0 0 1 .031-.004c.074 0 .144.055.16.132a.169.169 0 0 1-.124.198l-2.161.488a.164.164 0 0 1-.193-.128.17.17 0 0 1 .124-.198l1.148-.26 1.016-.228zm-1.264 6.24l-.09.007a1.96 1.96 0 0 0-.623.17l-.075-.353c.113.01.225.02.33.02.683 0 1.232-.21 1.864-.673.198-.146.375-.256.542-.348-.036.105-.072.21-.106.316-.025.076-.052.15-.077.227-.115.359-.224.72-.326 1.086l-.26-.16a1.974 1.974 0 0 0-1.04-.298H8.56c-.042 0-.083.004-.124.007zM3.756 6.13l.256-.218-.166-.296a1.245 1.245 0 0 1-.16-.607c0-.654.497-1.187 1.131-1.214l.475-.021-.11-.477a1.024 1.024 0 0 1-.029-.233c0-.52.394-.958.896-.997l.362-.028v-.402a.667.667 0 0 1 .656-.654c.204 0 .35.096.437.176l.274.256.263-.268a.544.544 0 0 1 .457-.16.57.57 0 0 1 .479.625l-.046.45h.44c.563 0 1.033.454 1.072 1.033l.017.265.243.088a1.537 1.537 0 0 1 1 1.486c-.005.285-.095.56-.256.8a4.125 4.125 0 0 0-.781-.512c-.062-.033-.121-.066-.181-.1-.017-.01-.037-.026-.044-.069a.235.235 0 0 1 .054-.179.886.886 0 0 0 .184-.745l-.047-.223a.854.854 0 0 0-.365-.54.806.806 0 0 0-.628-.116l-.105.024h-.003l-1.149.26-1.12.251a.828.828 0 0 0-.524.377.876.876 0 0 0-.113.647l.023.11v.003l.024.11a.853.853 0 0 0 .484.603.24.24 0 0 1 .13.13c.01.03.004.046-.02.085-.038.054-.08.108-.122.164a15.87 15.87 0 0 0-.133.177l-.045.063a5.038 5.038 0 0 0-.097.14l-.052.082a3.448 3.448 0 0 0-.135.234c-.029.056-.056.115-.082.176l-.034.077c-.034.088-.064.18-.089.277-.004.015-.005.032-.009.048a2.263 2.263 0 0 0-.044.256l-.007.11c-.003.047-.009.092-.009.142l-.004-.006-.016-.021a4.777 4.777 0 0 0-.27-.333 3.737 3.737 0 0 0-.173-.18L5.888 7.2a2.723 2.723 0 0 0-.22-.184c-.021-.016-.043-.028-.063-.043a2.097 2.097 0 0 0-.25-.15 1.672 1.672 0 0 0-.176-.076l-.059-.023a1.592 1.592 0 0 0-.193-.05c-.008-.002-.015-.001-.023-.002-.013-.003-.026-.008-.04-.01-.045-.007-.088-.004-.132-.007-.032-.002-.063-.01-.094-.01-.01 0-.019.003-.029.003-.06.001-.12.008-.178.016-.03.004-.059.006-.088.012a1.788 1.788 0 0 0-.226.059l-.034.01c-.195.069-.38.165-.552.282a.795.795 0 0 1 .225-.897zM1.242 9.48c.165-.321.567-.566 1.265-.772.326-.096.629-.276.875-.518.111-.11.216-.203.317-.288.315-.264.587-.408.833-.44a.771.771 0 0 1 .243.005c.02.003.039.01.058.015a.8.8 0 0 1 .11.033c.023.01.046.024.07.035.034.017.068.032.102.054.026.016.053.038.08.057.031.023.063.044.095.07.03.025.06.055.09.083.029.027.059.053.088.084.033.034.067.074.1.112.027.032.054.06.081.094.037.046.075.098.113.149.023.032.047.061.07.096.043.06.086.13.13.197.018.03.037.056.056.087.062.101.125.21.188.324.288.524.384 1.298.258 1.972l-.061-.008a1.192 1.192 0 0 1-.424-.156l-.279-.173a1.974 1.974 0 0 0-1.04-.298l-.013.001a1.97 1.97 0 0 0-1.054.297l-.135.084c-.237.147-.502.22-.768.223a1.477 1.477 0 0 1-.767-.223l-.526-.326a.658.658 0 0 0-.222-.086c-.061-.32-.039-.578.067-.784zm14.44 11.225c-.04.794-.675 1.417-1.446 1.417H3.25c-.771 0-1.406-.623-1.446-1.424l-.651-9.54.34.21c.37.229.784.341 1.197.339.414.002.828-.11 1.197-.339l.135-.083c.193-.12.409-.179.625-.181.216.002.431.061.624.18l.279.173c.353.219.753.312 1.148.29.035-.002.07-.002.106-.005.004 0 .008-.003.013-.003a1.97 1.97 0 0 0 .771-.26c.023-.008.047-.009.068-.022l.28-.172c.192-.12.408-.179.624-.181.216.002.431.061.624.18l.28.173c.295.183.625.278.956.292l.02.001c.115.004.23 0 .343-.016.065-.009.128-.026.191-.04.031-.008.062-.015.093-.025.173-.05.344-.114.502-.212l.28-.173c.192-.12.407-.178.623-.18.216.002.432.06.625.18l.279.173c.323.2.686.298 1.048.296l.018.001c.351 0 .703-.094 1.019-.284l.767-.352c.017-.007.029-.022.044-.032l.06-.027-.652 9.646z"/>
        <path fill="#5E23DC" d="M2.704 17.352h2.74c.215 0 .39-.18.39-.403a.397.397 0 0 0-.39-.404h-2.74a.397.397 0 0 0-.391.404c0 .223.175.403.391.403zM2.704 18.967h3.522c.216 0 .391-.18.391-.404a.397.397 0 0 0-.391-.403H2.704a.397.397 0 0 0-.391.403c0 .223.175.404.391.404zM7.009 19.774H2.704a.397.397 0 0 0-.391.403c0 .223.175.404.391.404H7.01c.216 0 .391-.18.391-.404a.397.397 0 0 0-.391-.403zM9.356 19.774h-.782a.397.397 0 0 0-.391.403c0 .223.175.404.39.404h.783c.216 0 .392-.18.392-.404a.397.397 0 0 0-.392-.403z"/>
        <path fill="#FFD731" d="M15.681 20.705c-.04.794-.674 1.417-1.445 1.417H3.25c-.771 0-1.406-.623-1.446-1.424l-.651-9.54.34.21c.37.229.784.341 1.197.339.414.002.828-.11 1.197-.339l.135-.083c.193-.12.409-.179.625-.181.216.002.431.061.624.18l.279.173c.353.219.753.312 1.148.29.035-.002.07-.002.106-.005.004 0 .008-.003.013-.003a1.97 1.97 0 0 0 .771-.26c.023-.008.047-.009.068-.022l.28-.172c.192-.12.408-.179.624-.181.216.002.431.061.624.18l.28.173c.295.183.625.278.956.292l.02.001c.115.004.23 0 .343-.016.065-.009.128-.026.191-.04.031-.008.062-.015.093-.025.173-.05.344-.114.502-.212l.28-.173c.192-.12.407-.178.623-.18.216.002.432.06.625.18l.279.173c.323.2.686.298 1.048.296l.018.001c.351 0 .703-.094 1.019-.284l.767-.352c.017-.007.029-.022.044-.032l.06-.027-.652 9.646z"/>
    </g>
</svg>
