<svg xmlns="http://www.w3.org/2000/svg" width="25" height="23" viewBox="0 0 25 23">
    <g fill="none" fill-rule="evenodd">
        <g fill="#5717D7">
            <path fill-rule="nonzero" stroke="#F6F5FF" stroke-width=".2" d="M23.714 7.981a1.484 1.484 0 0 0-1.637-1.304 1.51 1.51 0 0 0-1.356 1.637l.384 4.093-1.689 2.405h-.076a.051.051 0 0 1 0-.052l.588-1.867a1.484 1.484 0 0 0-.69-1.867 1.484 1.484 0 0 0-1.945.562l-2.405 3.94a1.714 1.714 0 0 0-.281.998l-.128 5.372h1.023l.128-5.398v-.026a.716.716 0 0 1 .128-.434l2.38-3.966a.46.46 0 0 1 .588-.179c.21.114.3.37.204.589v.05l-.588 1.868a1.074 1.074 0 0 0 .946 1.407c.375.022.733-.152.947-.46l1.816-2.558a.512.512 0 0 0 .102-.333l-.409-4.246a.486.486 0 0 1 .46-.512.46.46 0 0 1 .487.41l.588 5.423a.69.69 0 0 1-.153.511l-3.889 5.014a.512.512 0 0 0-.102.282l-.128 2.532 1.023.051.103-2.379 3.837-4.911c.28-.355.408-.805.358-1.254l-.614-5.398z"/>
            <path d="M14.602 20.942l5.367.024-.039.87-5.35-.044z"/>
        </g>
        <g fill="#5717D7">
            <path fill-rule="nonzero" stroke="#F6F5FF" stroke-width=".2" d="M23.714 7.981a1.484 1.484 0 0 0-1.637-1.304 1.51 1.51 0 0 0-1.356 1.637l.384 4.093-1.689 2.405h-.076a.051.051 0 0 1 0-.052l.588-1.867a1.484 1.484 0 0 0-.69-1.867 1.484 1.484 0 0 0-1.945.562l-2.405 3.94a1.714 1.714 0 0 0-.281.998l-.128 5.372h1.023l.128-5.398v-.026a.716.716 0 0 1 .128-.434l2.38-3.966a.46.46 0 0 1 .588-.179c.21.114.3.37.204.589v.05l-.588 1.868a1.074 1.074 0 0 0 .946 1.407c.375.022.733-.152.947-.46l1.816-2.558a.512.512 0 0 0 .102-.333l-.409-4.246a.486.486 0 0 1 .46-.512.46.46 0 0 1 .487.41l.588 5.423a.69.69 0 0 1-.153.511l-3.889 5.014a.512.512 0 0 0-.102.282l-.128 2.532 1.023.051.103-2.379 3.837-4.911c.28-.355.408-.805.358-1.254l-.614-5.398z"/>
            <path d="M14.602 20.942l5.367.024-.039.87-5.35-.044z"/>
        </g>
        <g fill="#5717D7">
            <path fill-rule="nonzero" stroke="#F6F5FF" stroke-width=".2" d="M1.244 7.981a1.484 1.484 0 0 1 1.637-1.304 1.51 1.51 0 0 1 1.356 1.637l-.384 4.093 1.689 2.405h.077a.051.051 0 0 0 0-.052l-.589-1.867a1.484 1.484 0 0 1 .69-1.867 1.484 1.484 0 0 1 1.945.562l2.405 3.94c.194.295.293.644.281.998l.128 5.372H9.456L9.328 16.5v-.026a.716.716 0 0 0-.128-.434l-2.38-3.966a.46.46 0 0 0-.587-.179.46.46 0 0 0-.205.589v.05l.588 1.868a1.074 1.074 0 0 1-.946 1.407 1.074 1.074 0 0 1-.947-.46L2.907 12.79a.512.512 0 0 1-.102-.333l.409-4.246a.486.486 0 0 0-.46-.512.46.46 0 0 0-.487.41l-.588 5.423a.69.69 0 0 0 .154.511l3.888 5.014c.061.082.097.18.102.282l.128 2.532-1.023.051-.102-2.379-3.838-4.911a1.714 1.714 0 0 1-.358-1.254l.614-5.398z"/>
            <path d="M10.356 20.942l-5.367.024.039.87 5.35-.044z"/>
        </g>
        <path fill="#5717D7" fill-rule="nonzero" d="M17.37 5.142a5.09 5.09 0 1 0-10.182 0 5.09 5.09 0 0 0 10.182 0z"/>
        <path fill="#FFDC00" fill-rule="nonzero" d="M12.28 9.33a4.165 4.165 0 1 1 0-8.33 4.165 4.165 0 0 1 0 8.33z"/>
        <path fill="#5717D7" fill-rule="nonzero" stroke="#FFDC00" stroke-width=".2" d="M14.402 4.63h-1.611V3.02a.512.512 0 1 0-1.024 0V4.63h-1.611a.512.512 0 1 0 0 1.023h1.611v1.612a.512.512 0 1 0 1.024 0V5.653h1.611a.512.512 0 1 0 0-1.023z"/>
    </g>
</svg>
