<svg xmlns="http://www.w3.org/2000/svg" width="24" height="24" viewBox="0 0 24 24">
    <g fill="none" fill-rule="nonzero" stroke-width=".5">
        <path fill="#5E23DC" stroke="#F6F5FF" d="M18.445 19.09c2.512 0 4.555-2.024 4.555-4.512a4.519 4.519 0 0 0-1.921-3.682 3.83 3.83 0 0 0 .632-2.119c0-1.656-1.084-3.12-2.641-3.654C18.854 2.813 16.922 1 14.578 1c-.93 0-1.83.287-2.584.814A4.457 4.457 0 0 0 9.422 1C7.078 1 5.146 2.813 4.93 5.123c-1.557.534-2.64 1.998-2.64 3.654 0 .765.22 1.494.631 2.119A4.519 4.519 0 0 0 1 14.578c0 2.488 2.043 4.512 4.555 4.512h3.222v2.62H5.555a.645.645 0 0 0 0 1.29h12.89a.645.645 0 0 0 0-1.29h-3.222v-2.62h3.222zm-3.867-16.8c1.763 0 3.248 1.454 3.216 3.318a.644.644 0 0 0 .518.643c1.223.246 2.11 1.308 2.11 2.526 0 .695-.274 1.347-.772 1.837a.645.645 0 0 0 .181 1.045 3.23 3.23 0 0 1 1.88 2.92c0 1.776-1.465 3.222-3.266 3.222h-2.002a4.498 4.498 0 0 0 1.358-3.223 4.519 4.519 0 0 0-1.922-3.682 3.83 3.83 0 0 0 .633-2.119 3.879 3.879 0 0 0-2.598-3.652 4.556 4.556 0 0 0-.957-2.398 3.218 3.218 0 0 1 1.621-.438zm-.644 19.42h-3.868v-2.62h3.868v2.62zm-.645-3.91h-3.223v-4.244l2.39-2.39a.645.645 0 1 0-.912-.91l-1.478 1.477V5.555a.645.645 0 0 0-1.289 0v3.6L7.3 7.677a.645.645 0 1 0-.911.912l2.39 2.389v3.333l-1.479-1.478a.645.645 0 1 0-.911.912l2.39 2.39V17.8H5.554c-1.801 0-3.266-1.446-3.266-3.223a3.23 3.23 0 0 1 1.88-2.92.645.645 0 0 0 .181-1.044 2.558 2.558 0 0 1-.772-1.837c0-1.218.887-2.28 2.11-2.526a.646.646 0 0 0 .511-.73C6.217 3.737 7.656 2.29 9.422 2.29c1.766 0 3.205 1.447 3.222 3.233a.646.646 0 0 0 .512.729 2.583 2.583 0 0 1 2.067 2.526c0 .695-.275 1.347-.773 1.837a.645.645 0 0 0 .182 1.045 3.23 3.23 0 0 1 1.88 2.92 3.226 3.226 0 0 1-3.223 3.222z"/>
        <path fill="#FFD731" stroke="#FFD731" d="M13.29 17.8h-3.224v-4.244l2.39-2.39a.645.645 0 1 0-.912-.91l-1.478 1.477V5.555a.645.645 0 0 0-1.289 0v3.6L7.3 7.677a.645.645 0 1 0-.911.912l2.39 2.389v3.333l-1.479-1.478a.645.645 0 1 0-.911.912l2.39 2.39V17.8H5.554c-1.801 0-3.266-1.446-3.266-3.223a3.23 3.23 0 0 1 1.88-2.92.645.645 0 0 0 .181-1.044 2.558 2.558 0 0 1-.772-1.837c0-1.218.887-2.28 2.11-2.526a.646.646 0 0 0 .511-.73C6.217 3.737 7.656 2.29 9.422 2.29c1.766 0 3.205 1.447 3.222 3.233a.646.646 0 0 0 .512.729 2.583 2.583 0 0 1 2.067 2.526c0 .695-.275 1.347-.773 1.837a.645.645 0 0 0 .182 1.045 3.23 3.23 0 0 1 1.88 2.92 3.226 3.226 0 0 1-3.223 3.222z"/>
    </g>
</svg>
