<?xml version="1.0" encoding="utf-8"?>
<!-- Generator: Adobe Illustrator 27.2.0, SVG Export Plug-In . SVG Version: 6.00 Build 0)  -->
<svg version="1.1" id="Layer_1" xmlns="http://www.w3.org/2000/svg" xmlns:xlink="http://www.w3.org/1999/xlink" x="0px" y="0px"
	 viewBox="0 0 300 140.1" style="enable-background:new 0 0 300 140.1;" xml:space="preserve">
<style type="text/css">
	.st0{fill:url(#SVGID_1_);}
	.st1{fill:#58479D;}
	.st2{fill:none;stroke:#E8DDED;}
	.st3{fill:#FFFFFF;}
	.st4{fill:url(#SVGID_00000083060227648828090700000010587435364601587105_);}
	.st5{fill:url(#SVGID_00000082341700857617022860000015737627490177751469_);}
	.st6{enable-background:new    ;}
	.st7{fill:none;stroke:#FEEFED;}
	.st8{display:none;fill:#FF0000;}
	.st9{fill:#010101;}
	.st10{fill:#4A4A4A;}
	.st11{fill:#E5E5E5;}
	.st12{fill:#64B161;}
	.st13{fill-rule:evenodd;clip-rule:evenodd;fill:#FFFFFF;}
	.st14{fill:#D1F4EF;}
	.st15{fill:#A0E6DD;}
	.st16{fill:#3C2B64;}
	.st17{fill:#F7E2EF;}
	.st18{fill:#FFC4E9;}
	.st19{fill:#E8F4FF;}
	.st20{fill:#B2DAFF;}
	.st21{fill:#D3D3D3;}
	.st22{fill:#FAC73D;}
	.st23{fill:#EFE8FF;}
	.st24{fill:#5F449B;}
	.st25{fill:url(#SVGID_00000048485559711182742450000016572810695279557286_);}
	.st26{fill:url(#SVGID_00000036250194541787908050000016393119718066400902_);}
</style>
<g transform="translate(-89 -246)">
	
		<linearGradient id="SVGID_1_" gradientUnits="userSpaceOnUse" x1="2048.4387" y1="148.1752" x2="2048.7004" y2="148.2102" gradientTransform="matrix(67 0 0 24 -137106.5469 -3250.5947)">
		<stop  offset="0" style="stop-color:#3D3E98"/>
		<stop  offset="0.1" style="stop-color:#47429B"/>
		<stop  offset="0.2" style="stop-color:#54469C"/>
		<stop  offset="0.3" style="stop-color:#5F4B9F"/>
		<stop  offset="0.4" style="stop-color:#6A4FA0"/>
		<stop  offset="0.5" style="stop-color:#7554A3"/>
		<stop  offset="0.6" style="stop-color:#8058A4"/>
		<stop  offset="0.7" style="stop-color:#8B5DA7"/>
		<stop  offset="0.8" style="stop-color:#9864AA"/>
		<stop  offset="0.9" style="stop-color:#A56CAD"/>
		<stop  offset="1" style="stop-color:#B273B0"/>
	</linearGradient>
	<path class="st0" d="M120,294.3h63c1,0,1.9,0.9,1.9,1.9v20c0,1.1-0.9,1.9-1.9,1.9h-63c-1,0-2-0.9-2-1.9v-19.9
		C117.9,295.2,118.8,294.3,120,294.3z"/>
	<path class="st1" d="M119,294.3H94c-1,0-2,0.9-2,1.9v20c0,1.1,0.9,1.9,2,1.9h25c1,0,2-0.9,2-1.9v-19.9
		C120.9,295.2,120,294.3,119,294.3z"/>
	<path class="st2" d="M120.9,294.3v24"/>
	<path class="st3" d="M103.1,310.4c1.8,0,2.8-1.1,2.8-2.4c0-2.7-3.9-1.9-3.9-3.3c0-0.4,0.3-0.8,0.8-0.8h0.1c0.5,0,0.9,0.3,0.9,0.8
		l0,0h2.1c-0.2-1.5-1.2-2.4-3-2.4c-1.6,0-2.8,0.9-2.8,2.2c0,2.8,3.9,1.9,3.9,3.4c0,0.4-0.3,0.8-0.9,0.8c-0.5,0-0.9-0.3-0.9-0.9l0,0
		h-2C100.1,309.5,101.3,310.4,103.1,310.4L103.1,310.4z M111.3,310.2v-2.6l2.7-5.2h-2.1l-1.5,3.3l-1.5-3.3h-2.1l2.7,5.2v2.6H111.3z
		 M133.1,310.2v-1.5h-3.3v-1.9h2.7v-1.5h-2.7v-1.9h3.1v-1.5H128v8.4L133.1,310.2L133.1,310.2z M135.6,310.2l1-2.1l0,0l1.1,2.1h1.9
		l-2.1-3.4l1.9-3.3h-2.1l-0.8,1.9l0,0l-1-1.9h-2l2,3.3l-2.1,3.4H135.6L135.6,310.2z M143,310.4c0.9,0.1,2-0.3,2.4-1.1l-1.2-1.1
		c-0.3,0.4-0.8,0.6-1.2,0.6c-0.9,0-1.2-0.6-1.2-2.1s0.5-1.9,1.4-1.9c0.4,0,0.9,0.3,1.2,0.6l1.2-1.2c-0.6-0.8-1.5-1.1-2.4-1.1
		c-1.8,0-3.2,1.2-3.2,3.6C140,309.5,141.2,310.4,143,310.4L143,310.4z M148.1,310.4c0.3,0,0.6,0,0.9-0.2v-1.5h-0.3
		c-0.3,0-0.6-0.1-0.6-0.6v-6.9h-1.8v7.5c-0.1,0.9,0.6,1.7,1.5,1.8C147.8,310.4,147.9,310.4,148.1,310.4L148.1,310.4L148.1,310.4z
		 M152,310.4c0.8,0,1.3-0.3,1.8-0.8l0,0l0.3,0.6h1.5v-6.8h-1.8v4.7c-0.1,0.4-0.6,0.8-1.2,0.8s-0.9-0.4-0.9-1.2v-4.4h-1.8v4.5
		C149.7,309.6,150.5,310.4,152,310.4L152,310.4L152,310.4z M159,310.4c2,0,2.7-1.2,2.7-2.1c0-2.2-3.2-1.9-3.2-3
		c0-0.3,0.3-0.6,0.6-0.6c0.4,0,1,0.3,1.3,0.6l1.2-1.2c-0.6-0.6-1.5-1.1-2.4-0.9c-1.2-0.2-2.4,0.8-2.5,1.9v0.1c0,2.2,3.2,1.9,3.2,2.9
		c0,0.3-0.2,0.6-0.8,0.6c-0.8,0-1.3-0.3-1.8-0.9l-1,1.2C157.1,310.1,158,310.5,159,310.4L159,310.4z M163.7,302.7
		c0.6,0,1.1-0.4,1.1-1l0,0c0-0.6-0.5-1.1-1.1-1.1l0,0c-0.6,0-1,0.4-1,1.1l0,0C162.6,302.3,163.1,302.7,163.7,302.7L163.7,302.7
		L163.7,302.7z M164.6,310.2v-6.8h-1.8v6.8H164.6z M169.7,310.2l2.1-6.8H170l-0.9,3.3c-0.2,0.6-0.3,1.2-0.5,1.8l0,0
		c-0.2-0.6-0.3-1.2-0.4-1.8l-0.9-3.3h-2l2.2,6.8H169.7L169.7,310.2z M175.4,310.4c0.9,0,1.8-0.2,2.6-0.8l-0.8-1.4
		c-0.5,0.4-0.9,0.6-1.5,0.6c-1.2,0-1.7-0.6-1.7-1.7h4c0-0.4,0.2-0.8,0.2-1.2c0.2-1.3-0.9-2.6-2.2-2.7h-0.4c-2,0-3.2,1.4-3.2,3.4
		C172.1,309.2,173.3,310.4,175.4,310.4L175.4,310.4L175.4,310.4z M176.3,306.2h-2.4c0-0.8,0.4-1.3,1.2-1.3h0.2
		c0.8,0,1.1,0.4,1.1,1.2v0.1L176.3,306.2L176.3,306.2L176.3,306.2z"/>
</g>
<g transform="translate(-365.5 -138.5)">
	
		<linearGradient id="SVGID_00000168809465051542614070000003198860231589865636_" gradientUnits="userSpaceOnUse" x1="5921.8618" y1="149.6861" x2="5922.7676" y2="148.9992" gradientTransform="matrix(107 0 0 24 -633252.5 -3357.5947)">
		<stop  offset="0" style="stop-color:#5ABFB3"/>
		<stop  offset="1" style="stop-color:#5988BF"/>
	</linearGradient>
	<path style="fill:url(#SVGID_00000168809465051542614070000003198860231589865636_);" d="M395.3,212.7h103c1.1,0,1.9,0.9,1.9,2
		v19.9c0,1.1-0.9,2-1.9,2h-103c-1.1,0-1.9-0.9-1.9-2v-19.8C393.4,213.6,394.3,212.7,395.3,212.7z"/>
	
		<linearGradient id="SVGID_00000134939579010630696900000003324582532833277338_" gradientUnits="userSpaceOnUse" x1="5910.0996" y1="148.8142" x2="5909.5767" y2="149.8142" gradientTransform="matrix(29 0 0 24 -171001.7812 -3357.5947)">
		<stop  offset="0" style="stop-color:#58A7B8"/>
		<stop  offset="1" style="stop-color:#58BCB3"/>
	</linearGradient>
	<path style="fill:url(#SVGID_00000134939579010630696900000003324582532833277338_);" d="M371.3,212.7h27l0,0v24l0,0h-27
		c-1.1,0-1.9-0.9-1.9-2v-19.9C369.4,213.6,370.3,212.7,371.3,212.7z"/>
	<path class="st3" d="M390.4,221.4v-1c0-0.3-0.1-0.5-0.5-0.5l0,0c-1.9,0.1-3.7-0.6-5.1-1.9c-0.1-0.2-0.4-0.2-0.7,0
		c-1.3,1.3-3.1,1.9-5.1,1.9c-0.3,0-0.4,0.1-0.4,0.5l0,0v1c0,3.6-0.1,8.5,5.8,10.5h0.1h0.2C390.5,230,390.4,225,390.4,221.4z
		 M383.9,226.4c-0.2,0.1-0.3,0.1-0.3,0.1l0,0c-0.2,0-0.3,0-0.3-0.1l-1.6-1.8l0.7-0.8l1.2,1.5l2.7-2.7l0.7,0.8L383.9,226.4
		L383.9,226.4z"/>
	<g class="st6">
		<g>
			<path id="J" class="st3" d="M410.7,222c0-0.4-0.2-0.7-0.5-0.9s-0.7-0.3-1.2-0.3c-0.4,0-0.8,0.1-1,0.3s-0.4,0.5-0.4,0.8
				c0,0.2,0.1,0.4,0.4,0.6c0.3,0.1,0.8,0.3,1.6,0.5c1.2,0.3,2,0.6,2.4,0.9s0.6,0.9,0.6,1.7s-0.3,1.4-0.9,1.8
				c-0.6,0.5-1.4,0.7-2.5,0.7c-1,0-1.9-0.2-2.4-0.7c-0.6-0.5-0.9-1.2-0.9-2.1h1.7c0,0.4,0.2,0.8,0.5,1s0.7,0.4,1.3,0.4
				s1-0.1,1.3-0.3s0.5-0.4,0.5-0.7s-0.1-0.5-0.3-0.7c-0.2-0.1-0.7-0.3-1.4-0.5c-1.3-0.3-2.2-0.6-2.6-0.9s-0.7-0.9-0.7-1.6
				s0.3-1.4,0.9-1.9s1.4-0.7,2.4-0.7c0.9,0,1.7,0.2,2.3,0.7s0.9,1.1,1,2L410.7,222L410.7,222L410.7,222z"/>
		</g>
		<path class="st3" d="M416,227.9c-0.7,0-1.4-0.3-1.9-0.9s-0.7-1.3-0.7-2.3s0.2-1.8,0.7-2.4s1.1-0.9,2-0.9c0.7,0,1.2,0.3,1.6,0.9
			c0.1,0.1,0.1,0.2,0.2,0.3v-1h1.5v8.5h-0.8h-0.8V227C417.3,227.6,416.8,227.9,416,227.9L416,227.9z M416.5,222.9
			c-0.4,0-0.8,0.2-1,0.5s-0.4,0.8-0.4,1.4s0.1,1,0.4,1.4c0.2,0.3,0.6,0.5,1,0.5s0.8-0.2,1-0.5s0.4-0.8,0.4-1.4s-0.1-1-0.4-1.3
			C417.2,223.1,416.9,222.9,416.5,222.9z"/>
		<g>
			<path id="K" class="st3" d="M422.4,225.5c0,0.4,0.1,0.7,0.2,0.8s0.4,0.3,0.7,0.3c0.4,0,0.7-0.1,1-0.4c0.2-0.3,0.3-0.6,0.3-1.1
				v-3.4h0.8h0.8v6.1h-0.8h-0.8v-0.9c-0.1,0.1-0.1,0.2-0.2,0.3c-0.4,0.5-1,0.8-1.7,0.8c-0.6,0-1.1-0.2-1.5-0.6s-0.5-0.9-0.5-1.6
				v-4.1h0.8h0.8v3.8L422.4,225.5L422.4,225.5z"/>
		</g>
		<path class="st3" d="M429.3,227.9c-0.6,0-1-0.2-1.4-0.5c-0.3-0.3-0.5-0.8-0.5-1.3c0-0.6,0.2-1,0.5-1.3s0.8-0.5,1.4-0.6l1.1-0.1
			c0.3,0,0.5-0.1,0.7-0.2c0.1,0,0.1-0.1,0.2-0.2c0-0.1,0.1-0.2,0-0.3c0-0.2-0.1-0.3-0.3-0.4s-0.4-0.2-0.8-0.2
			c-0.3,0-0.5,0.1-0.7,0.2c-0.2,0.2-0.3,0.4-0.3,0.6h-1.5c0-0.7,0.3-1.3,0.7-1.6c0.5-0.4,1.1-0.5,2-0.5c0.8,0,1.4,0.2,1.8,0.5
			s0.7,0.8,0.7,1.3v3.4c0,0.3,0,0.5,0.1,0.6c0,0.1,0.1,0.2,0.3,0.3l0,0v0.2h-0.9h-0.9l0,0c-0.1-0.2-0.1-0.5-0.1-0.7l0,0
			C430.8,227.6,430.1,227.9,429.3,227.9L429.3,227.9z M431.2,225.5v-0.7c-0.2,0.1-0.4,0.2-0.7,0.3l-0.6,0.1
			c-0.3,0.1-0.5,0.1-0.6,0.3c-0.1,0.1-0.2,0.3-0.2,0.5s0.1,0.4,0.2,0.6c0.1,0.1,0.3,0.2,0.6,0.2c0.5,0,0.9-0.2,1.2-0.5
			c0.1-0.1,0.1-0.2,0.2-0.3C431.2,225.8,431.2,225.7,431.2,225.5z"/>
		<g>
			<path id="L" class="st3" d="M434.2,221.7h0.8h0.8v1.1c0.1-0.1,0.1-0.2,0.2-0.3c0.4-0.6,0.9-0.9,1.5-0.9h0.4v1.6h-0.5
				c-0.5,0-0.9,0.1-1.1,0.4s-0.4,0.6-0.4,1.1v3.2h-0.8h-0.8v-6.2L434.2,221.7L434.2,221.7z"/>
		</g>
		<path class="st3" d="M441.1,227.9c-0.9,0-1.6-0.3-2.1-0.9s-0.8-1.4-0.8-2.4s0.3-1.7,0.8-2.3s1.2-0.8,2.1-0.8s1.7,0.3,2.2,0.8
			c0.5,0.6,0.8,1.4,0.8,2.4v0.4h-4.2c0,0.5,0.1,0.8,0.3,1.1s0.6,0.4,1.1,0.4c0.2,0,0.5-0.1,0.7-0.2s0.3-0.3,0.4-0.5h1.6
			c-0.1,0.6-0.5,1.1-1,1.5S441.9,227.9,441.1,227.9z M442.4,224.1c0-0.4-0.1-0.7-0.3-0.9c-0.2-0.3-0.5-0.4-1-0.4
			c-0.4,0-0.7,0.2-0.9,0.5c-0.1,0.2-0.2,0.5-0.3,0.8L442.4,224.1L442.4,224.1L442.4,224.1z M450.7,219.5h1h1l2.9,8.3h-0.9h-0.9
			l-0.6-1.7h-3.1l-0.5,1.7h-0.9h-0.9L450.7,219.5L450.7,219.5z M450.6,224.7h2.2l-1.1-3.3l0,0L450.6,224.7z M460.1,223.5
			c0-0.2-0.1-0.4-0.3-0.6c-0.2-0.1-0.5-0.2-0.8-0.2s-0.6,0.1-0.7,0.2c-0.2,0.1-0.3,0.3-0.3,0.4s0.1,0.3,0.3,0.3
			c0.2,0.1,0.5,0.2,1,0.3c1,0.2,1.6,0.5,2,0.7s0.5,0.7,0.5,1.2c0,0.6-0.2,1.1-0.7,1.4c-0.5,0.4-1.1,0.5-1.9,0.5
			c-0.9,0-1.7-0.2-2.2-0.5c-0.5-0.4-0.8-0.9-0.8-1.6h1.6c0,0.3,0.1,0.5,0.4,0.7c0.2,0.2,0.6,0.2,1,0.2c0.3,0,0.6-0.1,0.8-0.2
			c0.2-0.1,0.3-0.3,0.3-0.5c0-0.1-0.1-0.3-0.3-0.4s-0.5-0.2-0.9-0.3c-1-0.2-1.7-0.5-2.1-0.7c-0.3-0.3-0.5-0.7-0.5-1.2
			c0-0.6,0.2-1.1,0.7-1.5s1-0.6,1.8-0.6s1.5,0.2,2,0.5c0.5,0.4,0.8,0.8,0.8,1.4h-1.7L460.1,223.5L460.1,223.5z M466.5,223.5
			c0-0.2-0.1-0.4-0.3-0.6s-0.5-0.2-0.8-0.2s-0.6,0.1-0.7,0.2c-0.2,0.1-0.3,0.3-0.3,0.4s0.1,0.3,0.3,0.3c0.2,0.1,0.5,0.2,1,0.3
			c1,0.2,1.6,0.5,2,0.7c0.3,0.3,0.5,0.7,0.5,1.2c0,0.6-0.2,1.1-0.7,1.4c-0.5,0.4-1.1,0.5-1.9,0.5c-0.9,0-1.7-0.2-2.2-0.5
			c-0.5-0.4-0.8-0.9-0.8-1.6h1.6c0,0.3,0.1,0.5,0.4,0.7c0.2,0.2,0.6,0.2,1,0.2c0.3,0,0.6-0.1,0.8-0.2c0.2-0.1,0.3-0.3,0.3-0.5
			c0-0.1-0.1-0.3-0.3-0.4s-0.5-0.2-0.9-0.3c-1-0.2-1.7-0.5-2.1-0.7c-0.3-0.3-0.5-0.7-0.5-1.2c0-0.6,0.2-1.1,0.7-1.5s1-0.6,1.8-0.6
			s1.5,0.2,2,0.5s0.8,0.8,0.8,1.4h-1.7L466.5,223.5L466.5,223.5z"/>
		<g>
			<path id="K_00000147204039440233390920000010083723337504473506_" class="st3" d="M471,225.5c0,0.4,0.1,0.7,0.2,0.8
				s0.4,0.3,0.7,0.3c0.4,0,0.7-0.1,1-0.4c0.2-0.3,0.3-0.6,0.3-1.1v-3.4h0.8h0.8v6.1H474h-0.8v-0.9c-0.1,0.1-0.1,0.2-0.2,0.3
				c-0.4,0.5-1,0.8-1.7,0.8c-0.6,0-1.1-0.2-1.5-0.6s-0.5-0.9-0.5-1.6v-4.1h0.8h0.8v3.8L471,225.5L471,225.5z"/>
		</g>
		<g>
			<path id="L_00000014626920459385235130000013286885454024968848_" class="st3" d="M476.4,221.7h0.8h0.8v1.1
				c0.1-0.1,0.1-0.2,0.2-0.3c0.4-0.6,0.9-0.9,1.5-0.9h0.4v1.6h-0.5c-0.5,0-0.9,0.1-1.1,0.4s-0.4,0.6-0.4,1.1v3.2h-0.8h-0.8v-6.2
				L476.4,221.7L476.4,221.7z"/>
		</g>
		<path class="st3" d="M483.3,227.9c-0.9,0-1.6-0.3-2.1-0.9s-0.8-1.4-0.8-2.4s0.3-1.7,0.8-2.3s1.2-0.8,2.1-0.8s1.7,0.3,2.2,0.8
			c0.5,0.6,0.8,1.4,0.8,2.4v0.4h-4.2c0,0.5,0.1,0.8,0.3,1.1s0.6,0.4,1.1,0.4c0.2,0,0.5-0.1,0.7-0.2s0.3-0.3,0.4-0.5h1.6
			c-0.1,0.6-0.5,1.1-1,1.5S484.1,227.9,483.3,227.9z M484.5,224.1c0-0.4-0.1-0.7-0.3-0.9c-0.2-0.3-0.5-0.4-1-0.4
			c-0.4,0-0.7,0.2-0.9,0.5c-0.1,0.2-0.2,0.5-0.3,0.8L484.5,224.1L484.5,224.1L484.5,224.1z M489.5,227.9c-0.7,0-1.4-0.3-1.9-0.9
			s-0.7-1.4-0.7-2.4c0-0.9,0.2-1.7,0.7-2.3s1.2-0.9,1.9-0.9c0.7,0,1.3,0.3,1.7,0.9l0.1,0.1v-2.9h0.8h0.8v8.3h-0.8h-0.8V227l0,0
			C490.8,227.6,490.3,227.9,489.5,227.9L489.5,227.9z M490,222.9c-0.4,0-0.8,0.2-1,0.5s-0.4,0.8-0.4,1.4s0.1,1,0.4,1.4
			c0.2,0.3,0.6,0.5,1,0.5s0.8-0.2,1-0.5s0.4-0.8,0.4-1.4s-0.1-1-0.4-1.3C490.7,223.1,490.4,222.9,490,222.9z"/>
	</g>
	<path class="st7" d="M398.3,212.7v24"/>
</g>
<rect x="277" y="1.5" class="st8" width="22" height="22"/>
<rect x="277" y="24.5" class="st8" width="22" height="22"/>
<rect x="253.5" y="24.5" class="st8" width="22" height="22"/>
<rect x="253.5" y="1.5" class="st8" width="22" height="22"/>
<rect x="230.8" y="1.5" class="st8" width="22" height="22"/>
<rect x="230.8" y="24.1" class="st8" width="22" height="22"/>
<rect x="1.5" y="1.4" class="st8" width="44" height="44"/>
<rect x="46.5" y="1.4" class="st8" width="44" height="44"/>
<rect x="91.5" y="1.4" class="st8" width="44" height="44"/>
<rect x="136.9" y="1.4" class="st8" width="44" height="44"/>
<rect x="182.1" y="1.4" class="st8" width="44" height="44"/>
<g>
	<path class="st3" d="M264.5,28c-4.1,0-7.5,3.4-7.5,7.5s3.4,7.5,7.5,7.5s7.5-3.4,7.5-7.5S268.6,28,264.5,28z"/>
	<path class="st9" d="M267.1,35.9l-3.8,2.3c-0.2,0.1-0.5,0-0.7-0.1c0,0-0.1-0.1-0.1-0.2v-4.7c0-0.3,0.2-0.5,0.4-0.5c0,0,0,0,0.1,0
		h0.2L267,35c0.2,0.1,0.3,0.4,0.1,0.7C267.2,35.9,267.1,35.9,267.1,35.9z"/>
</g>
<path class="st10" d="M291.9,37.5c-0.5,0-1,0.2-1.4,0.6l-3.1-1.9c0.2-0.4,0.2-0.9,0-1.4l3.1-1.9c0.7,0.8,1.9,0.8,2.7,0.1
	c0.8-0.7,0.8-1.9,0.1-2.7c-0.7-0.8-1.9-0.8-2.7-0.1c-0.6,0.5-0.8,1.4-0.5,2.1l-3.1,1.9c-0.7-0.8-1.9-0.8-2.7-0.1
	c-0.8,0.7-0.8,1.9-0.1,2.7s1.9,0.8,2.7,0.1l0.1-0.1l3.1,1.9c-0.4,1,0.1,2.1,1.1,2.5s2.1-0.1,2.5-1.1s-0.1-2.1-1.1-2.5
	C292.4,37.5,292.1,37.5,291.9,37.5z M290.7,31.6c0-0.7,0.5-1.2,1.2-1.2s1.2,0.5,1.2,1.2c0,0.7-0.5,1.2-1.2,1.2l0,0
	C291.2,32.8,290.7,32.2,290.7,31.6L290.7,31.6z M285.6,36.7c-0.7,0-1.2-0.5-1.2-1.2s0.5-1.2,1.2-1.2s1.2,0.5,1.2,1.2l0,0
	C286.8,36.1,286.3,36.7,285.6,36.7z M290.7,39.4c0-0.7,0.5-1.2,1.2-1.2s1.2,0.5,1.2,1.2s-0.5,1.2-1.2,1.2l0,0
	C291.2,40.6,290.7,40,290.7,39.4z"/>
<path class="st10" d="M264.5,18.7c-0.1,0-0.2-0.1-0.3-0.1l-5.7-5.6c-0.8-0.7-1.2-1.7-1.2-2.7s0.4-2,1.2-2.7c1.5-1.5,4-1.5,5.6,0
	l0.4,0.4l0.4-0.4c1.5-1.5,4-1.5,5.6,0c0.8,0.7,1.2,1.7,1.1,2.7c0,1-0.4,2-1.2,2.7l-5.7,5.6C264.7,18.6,264.6,18.7,264.5,18.7z
	 M261.4,7.2c-0.8,0-1.6,0.3-2.2,0.9c-0.6,0.6-1,1.3-0.9,2.2c0,0.8,0.4,1.6,0.9,2.2l5.4,5.3l5.4-5.3c0.6-0.6,0.9-1.4,1-2.2
	c0-0.8-0.4-1.6-0.9-2.2c-0.6-0.6-1.4-0.9-2.2-0.9c-0.8,0-1.6,0.3-2.2,0.9L265,8.8c-0.1,0.2-0.4,0.2-0.5,0l0,0l-0.7-0.7
	C263,7.5,262.2,7.2,261.4,7.2z"/>
<path class="st3" d="M288,18.7c-0.1,0-0.2-0.1-0.3-0.1L282,13c-0.8-0.7-1.2-1.7-1.2-2.7s0.4-2,1.2-2.7c1.5-1.5,4-1.5,5.6,0L288,8
	l0.4-0.4c1.5-1.5,4-1.5,5.6,0c0.8,0.7,1.2,1.7,1.1,2.7c0,1-0.4,2-1.2,2.7l-5.7,5.6C288.2,18.6,288.1,18.7,288,18.7z M284.9,7.2
	c-0.8,0-1.6,0.3-2.2,0.9c-0.6,0.6-1,1.3-0.9,2.2c0,0.8,0.4,1.6,0.9,2.2l5.4,5.3l5.4-5.3c0.6-0.6,0.9-1.4,1-2.2
	c0-0.8-0.4-1.6-0.9-2.2c-0.6-0.6-1.4-0.9-2.2-0.9c-0.8,0-1.6,0.3-2.2,0.9l-0.7,0.7c-0.1,0.2-0.4,0.2-0.5,0l0,0l-0.7-0.7
	C286.5,7.5,285.7,7.2,284.9,7.2z"/>
<g>
	<path class="st11" d="M144.6,38.4c-0.4,0-0.7-0.3-0.7-0.7l0,0v-0.1l1.9-7.2c-4-7.2-1.4-16.2,5.9-20.2c7.2-3.9,16.4-1.4,20.4,5.8
		s1.4,16.2-5.9,20.2c-2.2,1.2-4.8,1.9-7.2,1.9l0,0c-2.5,0-4.8-0.5-7-1.6L144.6,38.4L144.6,38.4z"/>
	<path class="st3" d="M144.6,37.7l2-7.3c-4-6.8-1.6-15.4,5.3-19.4c7-3.9,15.6-1.6,19.5,5.3s1.6,15.4-5.3,19.4
		c-2.2,1.2-4.6,1.9-7.1,1.9l0,0c-2.5,0-4.8-0.5-6.8-1.8L144.6,37.7L144.6,37.7z M152.6,33.1l0.4,0.3c1.8,1.1,4,1.6,6,1.6l0,0
		c6.6,0,11.9-5.3,11.9-11.8s-5.2-11.8-11.9-11.8s-11.9,5.3-11.9,11.8c0,2.2,0.7,4.3,1.8,6.2l0.3,0.4l-1.1,4.5L152.6,33.1z"/>
	<path class="st12" d="M145,37.2l1.9-7.2c-3.7-6.5-1.5-14.9,5.2-18.7c6.6-3.8,15-1.5,18.9,5.1s1.5,15-5.1,18.7c-2,1.2-4.5,1.9-7,1.9
		l0,0c-2.3,0-4.6-0.5-6.6-1.6L145,37.2L145,37.2z"/>
	<g>
		<path class="st3" d="M144.6,37.7l2-7.3c-4-6.8-1.6-15.4,5.3-19.4c7-3.9,15.6-1.6,19.5,5.3s1.6,15.4-5.3,19.4
			c-2.2,1.2-4.6,1.9-7.1,1.9l0,0c-2.5,0-4.8-0.5-6.8-1.8L144.6,37.7L144.6,37.7z M152.5,33.2l0.4,0.3c1.8,1.1,4,1.6,6,1.6l0,0
			c6.6,0,11.9-5.3,11.9-11.8s-5.3-11.8-11.9-11.8S147,16.8,147,23.3c0,2.2,0.7,4.3,1.8,6.2l0.3,0.4l-1.2,4.3L152.5,33.2L152.5,33.2z
			"/>
		<path class="st13" d="M155.4,17.3c-0.3-0.5-0.5-0.5-0.8-0.7h-0.7c-0.4,0-0.7,0.1-1,0.4c-0.8,0.8-1.2,1.9-1.2,3
			c0.1,1.4,0.7,2.6,1.5,3.7c1.5,2.3,3.6,4.2,6.1,5.4c3,1.2,3.7,0.9,4.2,0.9c1-0.1,1.9-0.8,2.5-1.6c0.3-0.5,0.3-1.1,0.3-1.6
			c-0.1-0.1-0.3-0.3-0.7-0.4s-2.2-1.1-2.5-1.2s-0.6-0.1-0.8,0.1l-1.1,1.4c-0.1,0.1-0.4,0.3-0.8,0.1c-1.1-0.4-2-0.9-2.9-1.8
			c-0.8-0.7-1.5-1.5-2-2.4c-0.3-0.4,0-0.5,0.1-0.7c0.3-0.4,0.7-0.8,1-1.2c0.1-0.1,0.1-0.4,0-0.7L155.4,17.3L155.4,17.3z"/>
	</g>
</g>
<g transform="translate(48.484 5)">
	<circle class="st14" cx="65" cy="18.4" r="21"/>
	<path class="st15" d="M57.6,26V11.6H72v11.3h-4v2h-5.7V26H57.6z"/>
	<g transform="translate(12 10.75)">
		<g transform="translate(0 0)">
			<g transform="translate(0 0)">
				<path class="st16" d="M62.5-1.3c0-0.2-0.1-0.3-0.3-0.3H42.9c-0.2,0-0.3,0.1-0.3,0.3V18c0,0.2,0.1,0.3,0.3,0.3h19.3
					c0.2,0,0.3-0.1,0.3-0.3V-1.3z M43.2,17.8V-0.9h18.7v18.7C61.9,17.8,43.2,17.8,43.2,17.8z"/>
			</g>
		</g>
		<g transform="translate(2.501 2.5)">
			<path class="st16" d="M57.5,4.6v-5.9c0-0.2-0.1-0.3-0.3-0.3H50h-7.2c-0.2,0-0.3,0.1-0.3,0.3l0,0v5.9v4.7V13
				c0,0.2,0.1,0.3,0.3,0.3h4.7c0.2,0,0.3-0.1,0.3-0.3v-0.6h5c0.5,0,0.9-0.4,0.9-0.9v-1.2h3.4c0.2,0,0.3-0.1,0.3-0.3L57.5,4.6z
				 M53.7-1v2.5c0,0.2,0.1,0.3,0.3,0.3s0.3-0.1,0.3-0.3V-1h2.5v5.3h-2.5V3.4c0-0.2-0.1-0.3-0.3-0.3s-0.3,0.1-0.3,0.3v0.9h-0.6h-1.9
				h-0.9V-1H53.7z M52.8,6.8c-0.7-0.1-1.2-0.8-1.3-1.5V5h0.8h0.4L52.8,6.8z M49.7,4.3h-1.2V4c0-0.7,0.5-1.4,1.2-1.5V4.3z M43.2,12.8
				V9.7h1.2c0.2,0,0.3-0.1,0.3-0.3s-0.1-0.3-0.3-0.3h-1.2V5h1h1.2v0.3c0,1.1,0.8,2,1.9,2.2v3.2v1.5v0.6H43.2z M46,5h1.2v1.8
				C46.5,6.7,46,6,46,5.3V5z M43.2,4.4v-5.3h2.5v1.2c0,0.2,0.1,0.3,0.3,0.3s0.3-0.1,0.3-0.3v-1.2h3.4v2.8C48.6,2,47.8,3,47.8,4v0.3
				L43.2,4.4z M52.8,11.8h-5v-0.4v-1.1h5.3v1.2C53.2,11.7,53,11.8,52.8,11.8L52.8,11.8L52.8,11.8z M47.8,9.7V8.9V5H51v0.3
				c0,1.2,1,2.2,2.2,2.2c0.2,0,0.3-0.1,0.3-0.3V5h0.6h2.8v4.7H47.8z"/>
		</g>
		<g transform="translate(14.379 14.973)">
			<path class="st16" d="M45.6-0.7c0-0.5-0.4-0.9-0.9-0.9h-1.2c-0.5,0-0.9,0.4-0.9,0.9v1.2c0,0.2,0.1,0.3,0.3,0.3h2.5
				c0.2,0,0.3-0.1,0.3-0.3L45.6-0.7z M43.1,0.3v-0.9c0-0.2,0.1-0.3,0.3-0.3h1.2C44.9-1,45-0.8,45-0.7v0.9L43.1,0.3z"/>
		</g>
	</g>
</g>
<g transform="translate(3.484 5)">
	<circle class="st17" cx="20" cy="18.4" r="21"/>
	<g transform="translate(11 10.75)">
		<path class="st18" d="M-0.1,4.1l2.6-4.7v-1.7H16c0.3,0.5,0.5,1,0.6,1.5c0.8,1.7,1.6,3.3,2.5,4.9c0,0-0.4,2.7-1.6,2.5
			c-0.7-0.1-1.3-0.5-1.7-1.1c-0.5,0.4-1,0.8-1.6,1.1c-0.5-0.3-1.1-0.7-1.5-1.1L11,6.6L9.5,5.5L7.8,6.6L6.4,5.5L4.7,6.6L3.1,5.5
			L1.2,6.6l-1.3-1.1L-0.1,4.1z"/>
		<g transform="translate(15.859 16.641)">
			<path class="st16" d="M-0.1-2.6c-0.2,0-0.4,0.2-0.4,0.4s0.2,0.4,0.4,0.4S0.3-2,0.3-2.2l0,0C0.3-2.4,0.1-2.6-0.1-2.6z"/>
		</g>
		<path class="st16" d="M16.9-0.7v-0.7c0-0.6-0.5-1.2-1.2-1.2H3.3c-0.6,0-1.2,0.5-1.2,1.2v0.7C-0.5,4-0.5,3.8-0.5,4l0,0v0.8
			c0,0.7,0.4,1.3,1,1.7V17c0,0.2,0.2,0.4,0.4,0.4h17.2c0.2,0,0.4-0.2,0.4-0.4l0,0V6.5c0.6-0.3,1-1,1-1.7V4l0,0
			C19.5,3.8,19.5,3.9,16.9-0.7z M18.5,3.7H16l-1.3-3.9h1.6L18.5,3.7z M13,4.4h2.3v0.4c0,0.6-0.5,1.2-1.2,1.2C13.6,6,13,5.5,13,4.8
			V4.4z M13,3.7l-0.7-3.9h1.6l1.3,3.9H13z M2.9-1.4c0-0.2,0.2-0.4,0.4-0.4l0,0h12.5c0.2,0,0.4,0.2,0.4,0.4l0,0V-1H2.9V-1.4z
			 M12.2,4.4v0.4C12.2,5.4,11.7,6,11,6c-0.6,0-1.2-0.5-1.2-1.2V4.4H12.2z M9.9,3.7v-3.9h1.6l0.7,3.9H9.9z M6.9,3.7l0.7-3.9h1.6v3.9
			H6.9z M9.1,4.4v0.4C9.1,5.5,8.6,6,8,6C7.3,6,6.8,5.5,6.8,4.8V4.4H9.1z M3.8,3.7l1.3-3.9h1.6L6.1,3.7H3.8z M6,4.4v0.4
			C6,5.5,5.5,6,4.8,6S3.7,5.5,3.7,4.8V4.4H6z M2.7-0.3h1.6L3,3.7H0.6L2.7-0.3z M0.3,4.8V4.4h2.6v0.4C2.8,5.5,2.3,6,1.6,6
			C1.4,6,1.2,6,1.1,5.9C0.6,5.7,0.3,5.3,0.3,4.8z M7.6,16.6H3.7v-3.4h3.9C7.6,13.2,7.6,16.6,7.6,16.6z M7.6,12.5H3.7V9.1h3.9
			C7.6,9.1,7.6,12.5,7.6,12.5z M17.7,16.6H8.3V8.7c0-0.2-0.2-0.4-0.4-0.4H3.3C3,8.3,2.9,8.5,2.9,8.7v7.9H1.3V6.8c0.1,0,0.2,0,0.3,0
			c0.5,0,1-0.2,1.4-0.6C3.1,6.1,3.2,6.1,3.3,6C3.9,6.8,5.1,7,6,6.4C6.1,6.3,6.3,6.2,6.4,6C7,6.9,8.3,7,9.1,6.4
			C9.3,6.3,9.4,6.1,9.5,6c0.6,0.9,1.9,1,2.7,0.4c0.1-0.1,0.3-0.2,0.4-0.4c0.6,0.9,1.9,1,2.7,0.4c0.2-0.1,0.3-0.3,0.4-0.4
			c0.1,0.1,0.1,0.2,0.2,0.3c0.4,0.4,0.9,0.6,1.4,0.6c0.1,0,0.2,0,0.3,0L17.7,16.6z M18.7,4.8c0,0.5-0.3,0.9-0.8,1.1
			C17.8,6,17.6,6,17.4,6c-0.7,0-1.2-0.5-1.3-1.2V4.4h2.6V4.8z"/>
		<g transform="translate(10.391 10.938)">
			<path class="st16" d="M6.2,1.5H5.8v-3.8c0-0.2-0.2-0.4-0.4-0.4H0.7c-0.2,0-0.4,0.2-0.4,0.4v3.8h-0.4c-0.2,0-0.4,0.2-0.4,0.4
				s0.2,0.4,0.4,0.4h6.2c0.2,0,0.4-0.2,0.4-0.4S6.4,1.6,6.2,1.5L6.2,1.5z M5,1.5H1.1v-3.4H5V1.5z"/>
		</g>
		<g transform="translate(11.172 16.641)">
			<path class="st16" d="M3-2.6h-3.1c-0.2,0-0.4,0.2-0.4,0.4s0.2,0.4,0.4,0.4H3c0.2,0,0.4-0.2,0.4-0.4C3.4-2.4,3.2-2.6,3-2.6z"/>
		</g>
	</g>
</g>
<g id="a">
	<g transform="translate(93.484 5)">
		<circle class="st19" cx="-24.7" cy="18.4" r="21"/>
		<rect x="-32.7" y="8.4" class="st20" width="10" height="19"/>
		<g transform="translate(10 11)">
			<path class="st16" d="M-23.6,16.5h-2.2V2.9c0-0.2-0.2-0.4-0.4-0.4l0,0h-6.2v-4.8c0-0.2-0.2-0.4-0.4-0.4h-9.5
				c-0.2,0-0.4,0.2-0.4,0.4l0,0v18.7h-2.2c-0.2,0-0.4,0.1-0.4,0.3c0,0.2,0.1,0.4,0.3,0.4l0,0h21.3c0.2,0,0.4-0.1,0.4-0.3
				C-23.2,16.7-23.4,16.5-23.6,16.5L-23.6,16.5z M-33.1,16.5h-8.8V-1.9h8.8V16.5z M-26.5,16.5h-5.9V3.3h5.9L-26.5,16.5z"/>
			<path class="st16" d="M-30.6,6.9h2.2c0.2,0,0.4-0.2,0.4-0.4l0,0V4.4c0-0.2-0.2-0.4-0.4-0.4l0,0h-2.2C-30.8,4-31,4.2-31,4.4l0,0
				v2.2C-30.9,6.8-30.8,6.9-30.6,6.9L-30.6,6.9z M-30.2,4.7h1.5v1.5h-1.5V4.7z"/>
			<path class="st16" d="M-30.6,10.6h2.2c0.2,0,0.4-0.2,0.4-0.4l0,0V8c0-0.2-0.2-0.4-0.4-0.4l0,0h-2.2C-30.8,7.6-31,7.8-31,8l0,0
				v2.2C-30.9,10.4-30.8,10.6-30.6,10.6L-30.6,10.6z M-30.2,8.4h1.5v1.5h-1.5V8.4z"/>
			<path class="st16" d="M-30.6,14.3h2.2c0.2,0,0.4-0.2,0.4-0.4l0,0v-2.2c0-0.2-0.2-0.4-0.4-0.4l0,0h-2.2c-0.2,0-0.4,0.2-0.4,0.4
				l0,0v2.2C-30.9,14.1-30.8,14.3-30.6,14.3L-30.6,14.3z M-30.2,12.1h1.5v1.5h-1.5V12.1z"/>
			<path class="st16" d="M-36.8,6.9h2.2c0.2,0,0.4-0.2,0.4-0.4l0,0V4.4c0-0.2-0.2-0.4-0.4-0.4l0,0h-2.2c-0.2,0-0.4,0.2-0.4,0.4l0,0
				v2.2C-37.2,6.8-37,6.9-36.8,6.9L-36.8,6.9z M-36.4,4.7h1.5v1.5h-1.5V4.7z"/>
			<path class="st16" d="M-36.8,3.3h2.2c0.2,0,0.4-0.2,0.4-0.4l0,0V0.7c0-0.2-0.2-0.4-0.4-0.4l0,0h-2.2c-0.2,0-0.4,0.2-0.4,0.4l0,0
				v2.2C-37.2,3.1-37,3.3-36.8,3.3L-36.8,3.3z M-36.4,1.1h1.5v1.5h-1.5V1.1z"/>
			<path class="st16" d="M-36.8,10.6h2.2c0.2,0,0.4-0.2,0.4-0.4l0,0V8c0-0.2-0.2-0.4-0.4-0.4l0,0h-2.2c-0.2,0-0.4,0.2-0.4,0.4l0,0
				v2.2C-37.2,10.4-37,10.6-36.8,10.6L-36.8,10.6z M-36.4,8.4h1.5v1.5h-1.5V8.4z"/>
			<path class="st16" d="M-36.8,14.3h2.2c0.2,0,0.4-0.2,0.4-0.4l0,0v-2.2c0-0.2-0.2-0.4-0.4-0.4l0,0h-2.2c-0.2,0-0.4,0.2-0.4,0.4
				l0,0v2.2C-37.2,14.1-37,14.3-36.8,14.3L-36.8,14.3z M-36.4,12.1h1.5v1.5h-1.5V12.1z"/>
			<path class="st16" d="M-40.5,6.9h2.2c0.2,0,0.4-0.2,0.4-0.4l0,0V4.4c0-0.2-0.2-0.4-0.4-0.4l0,0h-2.2c-0.2,0-0.4,0.2-0.4,0.4l0,0
				v2.2C-40.8,6.8-40.7,6.9-40.5,6.9L-40.5,6.9z M-40.1,4.7h1.5v1.5h-1.5V4.7z"/>
			<path class="st16" d="M-40.5,3.3h2.2c0.2,0,0.4-0.2,0.4-0.4V0.7c0-0.2-0.2-0.4-0.4-0.4h-2.2c-0.2,0-0.4,0.2-0.4,0.4v2.2
				C-40.8,3.1-40.7,3.3-40.5,3.3z M-40.1,1.1h1.5v1.5h-1.5V1.1z"/>
			<path class="st16" d="M-40.5,10.6h2.2c0.2,0,0.4-0.2,0.4-0.4l0,0V8c0-0.2-0.2-0.4-0.4-0.4l0,0h-2.2c-0.2,0-0.4,0.2-0.4,0.4l0,0
				v2.2C-40.8,10.4-40.7,10.6-40.5,10.6L-40.5,10.6z M-40.1,8.4h1.5v1.5h-1.5V8.4z"/>
			<path class="st16" d="M-40.5,14.3h2.2c0.2,0,0.4-0.2,0.4-0.4l0,0v-2.2c0-0.2-0.2-0.4-0.4-0.4l0,0h-2.2c-0.2,0-0.4,0.2-0.4,0.4
				l0,0v2.2C-40.8,14.1-40.7,14.3-40.5,14.3L-40.5,14.3z M-40.1,12.1h1.5v1.5h-1.5V12.1z"/>
		</g>
	</g>
</g>
<path class="st3" d="M216.4,34.9c0,0.4-0.3,0.8-0.7,1.1l-4.8,2.9c-0.2,0.2-0.5,0.3-0.8,0.3c-0.3,0.1-0.6,0.1-0.9,0.1H209
	c-0.1,0-0.2,0-0.4-0.1c-0.6-0.2-1.2-0.4-1.7-0.6c-1-0.5-1.9-1-2.8-1.7c-1.3-1-2.4-2.1-3.5-3.3c-1.5-1.6-2.7-3.4-3.8-5.3
	c-0.9-1.5-1.7-3.1-2.4-4.7c-0.5-1.3-1-2.6-1.3-3.9c-0.3-1-0.4-2.1-0.5-3.1c-0.1-0.8-0.1-1.6,0-2.3c0-0.5,0.1-1,0.2-1.5
	c0.1-0.3,0.2-0.5,0.2-0.6c0.1-0.3,0.3-0.5,0.5-0.8c0.2-0.2,0.4-0.4,0.7-0.6l4.9-2.9c0.3-0.2,0.7-0.3,1-0.2c0.2,0.1,0.5,0.2,0.6,0.4
	c0.2,0.2,0.3,0.4,0.4,0.7l1.6,6.7c0.1,0.4,0.1,0.7-0.1,1.1c-0.2,0.3-0.4,0.6-0.7,0.8l-1.8,1.1c-0.1,0-0.1,0.1-0.2,0.2
	c0,0.1-0.1,0.1-0.1,0.2c0,0.5,0,1,0.2,1.5c0.2,0.7,0.4,1.3,0.7,2c0.4,1,0.9,1.9,1.5,2.8c0.5,0.9,1.1,1.8,1.8,2.7
	c0.4,0.5,0.9,1.1,1.4,1.5c0.3,0.3,0.6,0.5,0.9,0.7l0.3,0.2c0.1,0,0.1,0,0.2,0c0.1,0,0.1,0,0.2-0.1l2.1-1.3c0.4-0.2,0.9-0.3,1.3-0.2
	c0.3,0.1,0.5,0.2,0.7,0.4l0,0l4.8,4.7C216.2,34,216.4,34.4,216.4,34.9z"/>
<path class="st21" d="M15.6,101.3l2.5,5.2l5.7,0.8l-4.1,4l1,5.7l-5.1-2.7l-5.1,2.7l1-5.7l-4.1-4l5.7-0.8L15.6,101.3z M36.1,106.5
	l-5.7,0.8l4.1,4l-1,5.7l5.1-2.7l5.1,2.7l-1-5.7l4.1-4l-5.7-0.8l-2.5-5.2L36.1,106.5z M59.1,106.5l-5.7,0.8l4.1,4l-1,5.7l5.1-2.7
	l5.1,2.7l-1-5.7l4.1-4l-5.7-0.8l-2.5-5.2L59.1,106.5z M82.1,106.5l-5.7,0.8l4.1,4l-1,5.7l5.1-2.7l5.1,2.7l-1-5.7l4.1-4l-5.7-0.8
	l-2.5-5.2L82.1,106.5z M105.1,106.5l-5.7,0.8l4.1,4l-1,5.7l5.1-2.7l5.1,2.7l-1-5.7l4.1-4l-5.7-0.8l-2.5-5.2L105.1,106.5z"/>
<path class="st22" d="M15.6,120.3l2.5,5.2l5.7,0.8l-4.1,4l1,5.7l-5.1-2.7l-5.1,2.7l1-5.7l-4.1-4l5.7-0.8L15.6,120.3z M36.1,125.5
	l-5.7,0.8l4.1,4l-1,5.7l5.1-2.7l5.1,2.7l-1-5.7l4.1-4l-5.7-0.8l-2.5-5.2L36.1,125.5z M59.1,125.5l-5.7,0.8l4.1,4l-1,5.7l5.1-2.7
	l5.1,2.7l-1-5.7l4.1-4l-5.7-0.8l-2.5-5.2L59.1,125.5z M82.1,125.5l-5.7,0.8l4.1,4l-1,5.7l5.1-2.7l5.1,2.7l-1-5.7l4.1-4l-5.7-0.8
	l-2.5-5.2L82.1,125.5z M105.1,125.5l-5.7,0.8l4.1,4l-1,5.7l5.1-2.7l5.1,2.7l-1-5.7l4.1-4l-5.7-0.8l-2.5-5.2L105.1,125.5z"/>
<g id="Group-18-Copy-2">
	<g id="Group-2">
		<g id="Group-17-2">
			<g id="Group-16-Copy">
				<g id="house-">
					<path id="Path_4609" class="st23" d="M232.8,19.2v-4l3.5-2.3v6.3H232.8z"/>
					<path id="Path_4610" class="st23" d="M250.5,19.2v-4l-3.3-2.3v6.3H250.5z"/>
					<path id="Combined-Shape-2" class="st24" d="M241.5,7.6c0.1-0.1,0.3-0.1,0.5,0l0,0l5.6,4.2l0.1,0.3l0,0V13l2.8,2.1
						c0.1,0.1,0.1,0.2,0.1,0.3l0,0v3.8c0,0.2-0.1,0.3-0.3,0.3h-17.1c-0.2,0-0.3-0.1-0.3-0.3l0,0v-3.8c0-0.1,0.1-0.2,0.1-0.3l0,0
						l2.8-2.1v-0.8c0-0.1,0.1-0.2,0.1-0.3l0,0L241.5,7.6z M242.2,16.8h-0.8v1.9h0.8V16.8z M241.7,8.3l-5.2,3.9v6.5h4v-2.3
						c0-0.2,0.1-0.3,0.3-0.3h1.6c0.2,0,0.3,0.1,0.3,0.3l0,0v2.3h4v-6.5L241.7,8.3z M235.8,13.8l-2.2,1.7v3.2h2.2V13.8z M247.6,13.8
						v4.9h2.2v-3.2L247.6,13.8z M241.5,5.6h0.5l8.6,6.5c0.2,0.1,0.3,0.3,0.3,0.5s-0.3,0.3-0.5,0.3l-0.2-0.1l0,0l-8.3-6.4l-8.3,6.2
						c-0.2,0.1-0.5-0.1-0.5-0.3c-0.1-0.1,0-0.3,0.1-0.3l0,0L241.5,5.6z"/>
				</g>
			</g>
		</g>
	</g>
</g>
<g id="rent2">
	<rect id="Rectangle_2524" x="236.9" y="35.7" class="st23" width="12.2" height="5.8"/>
	<g id="Group_6184">
		<path id="Path_9240" class="st24" d="M250.7,31.9l-1.2-1.2h-13.7v-2.1c0-0.1,0-0.1-0.1-0.2l-1.2-1.2c-0.1-0.1-0.3-0.1-0.4,0l0,0
			l-1.2,1.2c-0.1,0-0.2,0.1-0.2,0.1v5.7h0.6v-5.5l0.9-0.9l0.9,0.9v13.9h-1.8v-8.7h-0.6v9c0,0.1,0.1,0.3,0.3,0.3l0,0h2.4
			c0.1,0,0.3-0.1,0.3-0.3l0,0l0,0v-9.3h2.1v2.1h-0.6c-0.3-0.1-0.6,0.2-0.7,0.6l0,0V41c-0.1,0.3,0.2,0.6,0.6,0.7l0,0h11.3
			c0.3,0.1,0.6-0.2,0.7-0.6l0,0v-3h-0.5V41c0,0.1,0,0.1-0.1,0.1h-11.2c-0.1,0-0.1,0-0.1-0.1v-4.6h0.6V37h0.6v-0.6h9V37h0.6v-0.6h0.6
			v2h0.6v-1.9c0.1-0.3-0.2-0.6-0.6-0.7l0,0h-0.7v-2.1h1.4l1.2-1.2C250.8,32.3,250.8,32.1,250.7,31.9L250.7,31.9z M247.5,35.7h-9
			v-2.1h9V35.7z M249.2,33h-13.3v-1.8h13.3l0.9,0.9L249.2,33z"/>
		<path id="Path_9241" class="st24" d="M240.3,38.3v-0.4c0.1-0.3-0.2-0.6-0.6-0.7l0,0h-0.6c-0.3-0.1-0.6,0.2-0.7,0.6l0,0v2.5h0.6v-1
			l0.6,0.8v0.2h0.6V40c0-0.1,0-0.1-0.1-0.2l-0.6-0.7C240.1,39,240.3,38.6,240.3,38.3z M239.7,38.3C239.7,38.4,239.7,38.4,239.7,38.3
			l-0.6,0.1v-0.6c0-0.1,0-0.1,0.1-0.1h0.4c0.1,0,0.1,0,0.1,0.1l0,0V38.3L239.7,38.3z"/>
		<path id="Path_9242" class="st24" d="M242.4,37.8v-0.6h-1.2c-0.1,0-0.3,0.1-0.3,0.3l0,0l0,0v2.4c0,0.1,0.1,0.3,0.3,0.3l0,0h1.2
			v-0.6h-0.9V39h0.6v-0.6h-0.6v-0.6L242.4,37.8z"/>
		<path id="Path_9243" class="st24" d="M243.9,37.4c-0.1-0.1-0.1-0.2-0.3-0.2h-0.3c-0.1,0-0.3,0.1-0.3,0.3l0,0l0,0v2.7h0.6v-1.9
			l0.6,1.7c0.1,0.1,0.1,0.2,0.3,0.2h0.3c0.1,0,0.3-0.1,0.3-0.3l0,0l0,0v-2.7h-0.6v1.9L243.9,37.4z"/>
		<path id="Path_9244" class="st24" d="M246.9,40.2v-2.4h0.6v-0.6h-1.8v0.6h0.6v2.4H246.9z"/>
		<path id="Path_9245" class="st24" d="M237.9,31.8h0.6v0.6h-0.6V31.8z"/>
		<path id="Path_9246" class="st24" d="M247.5,31.8h0.6v0.6h-0.6V31.8z"/>
		<path id="Path_9247" class="st24" d="M234,30.6h0.6v0.6H234V30.6z"/>
		<path id="Path_9248" class="st24" d="M234,33h0.6v0.6H234V33z"/>
	</g>
</g>
<g>
	
		<linearGradient id="SVGID_00000049212904241837402050000003595142074579831455_" gradientUnits="userSpaceOnUse" x1="3161.9836" y1="193.8976" x2="3162.8872" y2="193.2125" gradientTransform="matrix(68 0 0 24 -214895.6562 -4583.0947)">
		<stop  offset="0" style="stop-color:#5288C7"/>
		<stop  offset="1" style="stop-color:#425AA8"/>
	</linearGradient>
	<path style="fill:url(#SVGID_00000049212904241837402050000003595142074579831455_);" d="M125,48.4h64c1.1,0,1.9,0.9,1.9,2v20
		c0,1.1-0.9,2-1.9,2h-64c-1.1,0-1.9-0.9-1.9-2V50.6C123.1,49.3,124,48.4,125,48.4z"/>
	
		<linearGradient id="SVGID_00000053534312275698217860000015721897621280265133_" gradientUnits="userSpaceOnUse" x1="3173.47" y1="193.0232" x2="3172.9478" y2="194.0219" gradientTransform="matrix(29 0 0 24 -91909.7812 -4583.0947)">
		<stop  offset="0" style="stop-color:#4562AD"/>
		<stop  offset="1" style="stop-color:#4B7FC1"/>
	</linearGradient>
	<path style="fill:url(#SVGID_00000053534312275698217860000015721897621280265133_);" d="M101,48.3h27l0,0v24l0,0h-27
		c-1.1,0-1.9-0.9-1.9-2V50.4C99.1,49.2,100,48.3,101,48.3z"/>
	<path class="st3" d="M116.9,53.3h-6.6c-0.6,0-1.1,0.4-1.2,0.9v11.5c0,0.8,1.1,1.2,1.8,0.2l2.7-3.6l2.7,3.6c0.8,1,1.8,0.6,1.8-0.2
		V54.2C118,53.7,117.5,53.3,116.9,53.3L116.9,53.3z"/>
	<g class="st6">
		<path class="st3" d="M136,63.3V55h5.9v0.7v0.7h-4.1v1.9h3.6V59v0.7h-3.6v3.5h-1L136,63.3L136,63.3L136,63.3z"/>
		<g>
			<path id="M" class="st3" d="M145.3,63.5c-0.9,0-1.6-0.3-2.1-0.9s-0.8-1.4-0.8-2.4s0.3-1.7,0.8-2.3c0.5-0.6,1.2-0.8,2.1-0.8
				s1.7,0.3,2.2,0.8c0.5,0.6,0.8,1.4,0.8,2.4v0.4h-4.2c0,0.5,0.1,0.8,0.3,1.1c0.2,0.3,0.6,0.4,1.1,0.4c0.2,0,0.5-0.1,0.7-0.2
				c0.2-0.1,0.3-0.3,0.4-0.5h1.6c-0.1,0.6-0.5,1.1-1,1.5C146.7,63.3,146,63.5,145.3,63.5z M146.5,59.6c0-0.4-0.1-0.7-0.3-0.9
				c-0.2-0.3-0.5-0.4-1-0.4c-0.4,0-0.7,0.2-0.9,0.5c-0.1,0.2-0.2,0.5-0.3,0.8L146.5,59.6L146.5,59.6L146.5,59.6L146.5,59.6z"/>
		</g>
		<path class="st3" d="M150.7,63.5c-0.6,0-1-0.2-1.4-0.5c-0.3-0.3-0.5-0.7-0.5-1.3s0.2-1,0.5-1.3c0.3-0.3,0.8-0.5,1.4-0.6l1.1-0.1
			c0.3,0,0.5-0.1,0.7-0.2c0.1,0,0.1-0.1,0.2-0.2c0-0.1,0.1-0.2,0-0.3c0-0.2-0.1-0.3-0.3-0.4s-0.4-0.2-0.8-0.2
			c-0.3,0-0.5,0.1-0.7,0.2c-0.2,0.2-0.3,0.4-0.3,0.6h-1.5c0-0.7,0.3-1.3,0.7-1.6c0.5-0.4,1.1-0.5,2-0.5c0.8,0,1.4,0.2,1.8,0.5
			c0.4,0.3,0.7,0.8,0.7,1.3v3.4c0,0.3,0,0.5,0.1,0.6c0,0.1,0.1,0.2,0.3,0.3l0,0v0.2h-0.9h-1l0,0c-0.1-0.2-0.1-0.5-0.1-0.7l0,0
			C152.2,63.2,151.5,63.5,150.7,63.5L150.7,63.5z M152.6,61.1v-0.7c-0.2,0.1-0.4,0.2-0.7,0.3l-0.6,0.1c-0.3,0.1-0.5,0.1-0.6,0.3
			c-0.1,0.1-0.2,0.3-0.2,0.5s0.1,0.4,0.2,0.6c0.1,0.1,0.3,0.2,0.6,0.2c0.5,0,0.9-0.2,1.2-0.5c0.1-0.1,0.1-0.2,0.2-0.3
			C152.6,61.3,152.6,61.2,152.6,61.1L152.6,61.1z M158.4,63.3h-1c-0.6,0-1-0.1-1.2-0.3s-0.4-0.5-0.4-1v-3.7H155v-1.1h0.8v-1.6h1.6
			v1.6h1v1.1h-1v3.5c0,0.1,0,0.2,0.1,0.3c0.1,0,0.3,0.1,0.5,0.1h0.3v1.1L158.4,63.3L158.4,63.3L158.4,63.3z"/>
		<g>
			<path id="K_00000018937147716875684430000014412918081115537304_" class="st3" d="M161.1,61c0,0.4,0.1,0.7,0.2,0.8
				c0.1,0.1,0.4,0.3,0.7,0.3c0.4,0,0.7-0.1,1-0.4c0.2-0.3,0.3-0.6,0.3-1.1v-3.4h0.8h0.8v6.1h-0.8h-0.8v-0.9
				c-0.1,0.1-0.1,0.2-0.2,0.3c-0.4,0.5-1,0.8-1.7,0.8c-0.6,0-1.1-0.2-1.5-0.6s-0.5-0.9-0.5-1.6v-4.1h0.8h0.8V61L161.1,61L161.1,61z"
				/>
		</g>
		<g>
			<path id="L_00000058590772731644339830000012233861730460439187_" class="st3" d="M166.5,57.2h0.8h0.8v1.1
				c0.1-0.1,0.1-0.2,0.2-0.3c0.4-0.6,0.9-0.9,1.5-0.9h0.4v1.6h-0.5c-0.5,0-0.9,0.1-1.1,0.4c-0.2,0.3-0.4,0.6-0.4,1.1v3.2h-0.8h-0.8
				v-6.2L166.5,57.2L166.5,57.2z"/>
		</g>
		<g>
			<path id="M_00000007416212891220413550000012011894704064175264_" class="st3" d="M173.4,63.5c-0.9,0-1.6-0.3-2.1-0.9
				s-0.8-1.4-0.8-2.4s0.3-1.7,0.8-2.3c0.5-0.6,1.2-0.8,2.1-0.8s1.7,0.3,2.2,0.8c0.5,0.6,0.8,1.4,0.8,2.4v0.4h-4.2
				c0,0.5,0.1,0.8,0.3,1.1c0.2,0.3,0.6,0.4,1.1,0.4c0.2,0,0.5-0.1,0.7-0.2c0.2-0.1,0.3-0.3,0.4-0.5h1.6c-0.1,0.6-0.5,1.1-1,1.5
				C174.8,63.3,174.1,63.5,173.4,63.5z M174.6,59.6c0-0.4-0.1-0.7-0.3-0.9c-0.2-0.3-0.5-0.4-1-0.4c-0.4,0-0.7,0.2-0.9,0.5
				c-0.1,0.2-0.2,0.5-0.3,0.8L174.6,59.6L174.6,59.6L174.6,59.6L174.6,59.6z"/>
		</g>
		<path class="st3" d="M179.6,63.5c-0.7,0-1.4-0.3-1.9-0.9c-0.5-0.6-0.7-1.4-0.7-2.4c0-0.9,0.2-1.7,0.7-2.3c0.5-0.6,1.2-0.9,1.9-0.9
			c0.7,0,1.3,0.3,1.7,0.9l0.1,0.1v-2.9h0.8h0.8v8.3h-0.8h-0.8v-0.9l0,0C180.9,63.2,180.3,63.5,179.6,63.5L179.6,63.5z M180,58.4
			c-0.4,0-0.8,0.2-1,0.5c-0.2,0.3-0.4,0.8-0.4,1.4s0.1,1,0.4,1.4c0.2,0.3,0.6,0.5,1,0.5s0.8-0.2,1-0.5c0.2-0.3,0.4-0.8,0.4-1.4
			s-0.1-1-0.4-1.3C180.8,58.6,180.4,58.4,180,58.4L180,58.4z"/>
	</g>
	<path class="st7" d="M128,48.3v24"/>
</g>
</svg>
